<svg xmlns="http://www.w3.org/2000/svg" width="356" height="127" viewBox="0 0 356 127" xmlns:xlink="http://www.w3.org/1999/xlink">
  <g>
    <g transform="translate(-128 606)">
      <mask id="b">
        <use fill="#fff" xlink:href="#a" transform="translate(128 -606)"/>
      </mask>
      <g mask="url(#b)">
        <use fill="#a593e0" xlink:href="#c" transform="translate(128 -606)"/>
      </g>
    </g>
    <g transform="translate(-128 606)">
      <use fill="#a593e0" xlink:href="#d" transform="translate(81 -594)"/>
    </g>
  </g>
  <defs>
    <path id="a" d="M356 0H0v127h356V0z"/>
    <path id="c" d="M0 0v-5h-5v5h5zm356 0h5v-5h-5v5zm0 127v5h5v-5h-5zM0 127h-5v5h5v-5zM0 5h356V-5H0V5zm351-5v127h10V0h-10zm5 122H0v10h356v-10zM5 127V0H-5v127H5z"/>
    <path id="d" d="M99.328 51.11l-9.61 9.468V85h-5.765V16.75h5.766v36.797l34.968-36.797h7.265L103.36 47.125 134.155 85h-7.03L99.327 51.11zm94.125 3.468c0 6.28-1.094 11.797-3.28 16.547-2.157 4.75-5.25 8.406-9.282 10.97-4.03 2.56-8.687 3.843-13.968 3.843-7.97 0-14.406-2.844-19.313-8.532-4.907-5.72-7.36-13.422-7.36-23.11v-7.03c0-6.22 1.094-11.72 3.28-16.5 2.22-4.813 5.345-8.5 9.376-11.063 4.032-2.594 8.672-3.89 13.922-3.89s9.875 1.265 13.875 3.796c4.03 2.53 7.14 6.11 9.328 10.734 2.19 4.625 3.33 9.984 3.423 16.078v8.156zm-5.765-7.406c0-8.22-1.86-14.656-5.58-19.313-3.717-4.657-8.81-6.985-15.28-6.985-6.344 0-11.406 2.344-15.187 7.03-3.75 4.657-5.624 11.173-5.624 19.548v7.125c0 8.094 1.875 14.516 5.625 19.266 3.75 4.72 8.844 7.078 15.282 7.078 6.53 0 11.625-2.328 15.28-6.984 3.657-4.688 5.486-11.204 5.486-19.547v-7.218zm65.296-25.5h-23.39V85h-5.766V21.672h-23.344V16.75h52.5v4.922zm48.938 46.547c0-3.782-1.328-6.767-3.984-8.954-2.657-2.22-7.516-4.313-14.58-6.282-7.06-2-12.217-4.172-15.467-6.515-4.624-3.314-6.937-7.657-6.937-13.032 0-5.22 2.14-9.454 6.422-12.704 4.313-3.28 9.813-4.922 16.5-4.922 4.53 0 8.578.876 12.14 2.626 3.594 1.75 6.376 4.187 8.344 7.312 1.968 3.125 2.952 6.61 2.952 10.453H301.5c0-4.656-1.594-8.39-4.78-11.203-3.19-2.844-7.47-4.266-12.845-4.266-5.22 0-9.375 1.172-12.47 3.516-3.093 2.313-4.64 5.344-4.64 9.094 0 3.468 1.39 6.297 4.173 8.484 2.78 2.188 7.234 4.125 13.36 5.813 6.124 1.657 10.765 3.39 13.92 5.204 3.157 1.78 5.532 3.922 7.126 6.422 1.594 2.5 2.39 5.453 2.39 8.86 0 5.374-2.156 9.686-6.468 12.936-4.282 3.25-9.938 4.876-16.97 4.876-4.812 0-9.234-.86-13.265-2.58-4-1.717-7.046-4.124-9.14-7.217-2.062-3.093-3.093-6.64-3.093-10.64h5.765c0 4.813 1.797 8.61 5.39 11.39 3.595 2.782 8.376 4.172 14.345 4.172 5.312 0 9.578-1.17 12.797-3.515 3.22-2.344 4.828-5.453 4.828-9.328zm65.297-51.47v46.594c-.032 4.593-1.048 8.593-3.048 12-2 3.406-4.828 6.03-8.484 7.875-3.625 1.81-7.797 2.718-12.516 2.718-7.188 0-12.953-1.954-17.297-5.86-4.313-3.937-6.547-9.375-6.703-16.312V16.75h5.72v46.172c0 5.75 1.64 10.22 4.92 13.406 3.282 3.156 7.735 4.734 13.36 4.734 5.625 0 10.062-1.593 13.312-4.78 3.282-3.188 4.922-7.626 4.922-13.313V16.75h5.813z"/>
  </defs>
</svg>