<svg xmlns="http://www.w3.org/2000/svg" xmlns:xlink="http://www.w3.org/1999/xlink" version="1.1" id="Livello_1" x="0px" y="0px" width="100px" height="100px" viewBox="5.0 -10.0 100.0 135.0" enable-background="new 0 0 100 100" xml:space="preserve">
<path d="M65.036,98.275c-1.655-2.165-3.311-4.329-5.043-6.594c-1.714,2.157-3.38,4.252-5.215,6.561c0-6.156,0-12.059,0-18.067  c-1.248,0.273-2.36,0.517-3.677,0.805c0.287-1.248,0.505-2.358,0.805-3.445c0.182-0.66,0.024-0.94-0.657-1.105  c-1.082-0.261-2.136-0.638-3.381-1.021c1.025-1.119,1.983-2.165,2.973-3.246c-0.983-1.065-1.93-2.091-2.973-3.221  c1.254-0.391,2.358-0.781,3.488-1.071c0.611-0.157,0.709-0.435,0.566-0.988c-0.285-1.104-0.525-2.219-0.828-3.524  c1.24,0.274,2.336,0.438,3.378,0.771c0.796,0.254,1.055-0.036,1.236-0.727c0.273-1.043,0.602-2.072,0.965-3.305  c1.119,1.029,2.14,1.967,3.241,2.98c1.069-0.976,2.098-1.917,3.237-2.957c0.388,1.252,0.762,2.358,1.066,3.482  c0.157,0.583,0.413,0.717,0.991,0.561c1.106-0.299,2.232-0.522,3.527-0.817c-0.332,1.482-0.633,2.831-0.959,4.285  c1.369,0.424,2.705,0.837,4.225,1.308c-1.034,1.101-2.007,2.136-3.025,3.22c1.008,1.079,1.985,2.124,3.024,3.237  c-1.493,0.461-2.83,0.873-4.231,1.306c0.321,1.415,0.624,2.747,0.967,4.258c-1.222-0.258-2.322-0.49-3.502-0.739  c0,6.077,0,12.064,0,18.052C65.168,98.275,65.102,98.275,65.036,98.275z"/>
<path d="M69.288,50.055c0,0.635,0,1.211,0,1.848c-12.758,0-25.461,0-38.254,0c0-0.597,0-1.194,0-1.848  C43.755,50.055,56.464,50.055,69.288,50.055z"/>
<path d="M67.754,36.375c0,0.636,0,1.215,0,1.849c-11.768,0-23.485,0-35.276,0c0-0.61,0-1.185,0-1.849  C44.198,36.375,55.94,36.375,67.754,36.375z"/>
<path d="M62.812,21.818c0,0.667,0,1.219,0,1.851c-8.416,0-16.798,0-25.259,0c0-0.583,0-1.184,0-1.851  C45.959,21.818,54.341,21.818,62.812,21.818z"/>
<path d="M62.797,43.148c0,0.684,0,1.265,0,1.905c-8.432,0-16.813,0-25.257,0c0-0.634,0-1.239,0-1.905  C45.956,43.148,54.337,43.148,62.797,43.148z"/>
<path d="M68.386,1.725h-2.562H19.927v84.888h32.698v-2.197H22.096V3.922h44.196v11.494h11.613v68.999H67.438v2.197h12.636V15.975  v-2.562L68.386,1.725z M68.386,13.412V4.625l8.895,8.787H68.386z"/>
<text x="0.0" y="117.5" font-size="5.0" font-weight="bold" font-family="Helvetica Neue, Helvetica, Arial-Unicode, Arial, Sans-serif" fill="#000000">Created by Marco Galtarossa</text><text x="0.0" y="122.5" font-size="5.0" font-weight="bold" font-family="Helvetica Neue, Helvetica, Arial-Unicode, Arial, Sans-serif" fill="#000000">from the Noun Project</text></svg>