<svg 
 xmlns="http://www.w3.org/2000/svg"
 xmlns:xlink="http://www.w3.org/1999/xlink"
 width="18px" height="30px">
<path fill-rule="evenodd"  fill="rgb(55, 64, 82)"
 d="M0.457,16.883 C0.457,16.883 8.243,16.883 8.243,16.883 C8.243,16.883 8.243,16.335 8.243,16.335 C8.243,16.335 0.457,16.335 0.457,16.335 C0.457,16.335 0.457,16.883 0.457,16.883 ZM9.017,14.109 C8.700,14.109 8.454,14.415 8.454,14.827 C8.454,14.827 8.454,18.391 8.454,18.391 C8.454,18.802 8.700,19.109 9.017,19.109 C9.300,19.109 9.545,18.802 9.545,18.391 C9.545,18.391 9.545,14.827 9.545,14.827 C9.545,14.415 9.300,14.109 9.017,14.109 ZM17.049,26.028 C17.049,26.028 16.556,26.028 16.556,26.028 C16.556,26.028 17.437,30.002 17.437,30.002 C17.437,30.002 17.999,30.002 17.999,30.002 C17.999,30.002 17.049,26.028 17.049,26.028 ZM17.578,16.335 C17.578,16.335 9.758,16.335 9.758,16.335 C9.758,16.335 9.758,16.883 9.758,16.883 C9.758,16.883 17.578,16.883 17.578,16.883 C17.578,16.883 17.578,16.335 17.578,16.335 ZM0.951,25.790 C0.951,25.790 3.030,25.790 3.030,25.790 C3.030,25.790 5.107,17.157 5.107,17.157 C5.107,17.157 3.030,17.157 3.030,17.157 C3.030,17.157 0.951,25.790 0.951,25.790 ZM15.569,17.157 C15.569,17.157 13.527,17.157 13.527,17.157 C13.527,17.157 15.604,25.790 15.604,25.790 C15.604,25.790 17.648,25.790 17.648,25.790 C17.648,25.790 15.569,17.157 15.569,17.157 ZM9.300,8.937 C8.560,8.937 7.996,8.354 7.996,7.671 C7.996,6.985 8.560,6.402 9.300,6.402 C10.004,6.402 10.568,6.985 10.568,7.671 C10.568,8.354 10.004,8.937 9.300,8.937 ZM11.449,3.833 C11.449,3.833 7.116,3.833 7.116,3.833 C7.116,3.833 7.116,11.505 7.116,11.505 C7.116,11.505 11.449,11.505 11.449,11.505 C11.449,11.505 11.449,3.833 11.449,3.833 ZM9.934,-0.003 C9.934,-0.003 8.631,-0.003 8.631,-0.003 C8.631,-0.003 8.631,3.148 8.631,3.148 C8.631,3.148 9.934,3.148 9.934,3.148 C9.934,3.148 9.934,-0.003 9.934,-0.003 ZM0.001,30.002 C0.001,30.002 2.044,30.002 2.044,30.002 C2.044,30.002 2.818,26.678 2.818,26.678 C2.818,26.678 0.810,26.678 0.810,26.678 C0.810,26.678 0.001,30.002 0.001,30.002 ZM6.798,10.101 C6.798,10.101 4.755,10.101 4.755,10.101 C4.755,10.101 3.312,16.063 3.312,16.063 C3.312,16.063 5.355,16.063 5.355,16.063 C5.355,16.063 6.798,10.101 6.798,10.101 ZM15.323,16.063 C15.323,16.063 13.877,10.101 13.877,10.101 C13.877,10.101 11.836,10.101 11.836,10.101 C11.836,10.101 13.245,16.063 13.245,16.063 C13.245,16.063 15.323,16.063 15.323,16.063 Z"/>
</svg>