<?xml version="1.0" encoding="utf-8"?>
<!-- Generator: Adobe Illustrator 18.1.1, SVG Export Plug-In . SVG Version: 6.00 Build 0)  -->
<svg version="1.1" id="Layer_1" xmlns="http://www.w3.org/2000/svg" xmlns:xlink="http://www.w3.org/1999/xlink" x="0px" y="0px"
	 viewBox="30.6 170.5 550.8 298.4" enable-background="new 30.6 170.5 550.8 298.4" xml:space="preserve">
<g>
	<path d="M176.9,419.3H91.2V292l99.8-72.2l34.9,25.1l34.3-25.1l-66.7-48.3c-1.2-1.2-3.1-1.2-4.9,0L32.4,285.2
		c-1.8,1.2-2.4,3.7-1.2,5.5l19,26.3c0.6,0.6,1.8,1.2,2.4,1.8c1.2,0,1.8,0,3.1-0.6L72.8,306v123.6c0,4.9,4.3,9.2,9.2,9.2h94.2v-19.6
		H176.9z"/>
	<path d="M579.6,285.2L423.5,172c-1.2-1.2-3.1-1.2-4.9,0l-69.2,49.6l34.3,25.1l36.7-26.9l101,72.8v126.7h-88.7v18.4h98.5
		c4.9,0,9.2-4.3,9.2-9.2V306l15.9,11.6c0.6,0.6,1.2,0.6,2.4,0.6h0.6c1.2,0,1.8-0.6,2.4-1.8l19-26.3
		C582,288.9,581.4,286.5,579.6,285.2z"/>
	<path d="M441.9,348.3h0.6c1.2,0,1.8-0.6,2.4-1.8l19-26.3c1.2-1.8,0.6-4.3-0.6-5.5L306.6,202c-0.6-0.6-1.8-0.6-2.4-0.6
		c-0.6,0-1.8,0-2.4,0.6L145,315.2c-1.8,1.2-2.4,3.7-0.6,5.5l19,26.3c0.6,0.6,1.8,1.2,2.4,1.8h0.6c0.6,0,1.8,0,2.4-0.6L186,336v123.6
		c0,4.9,4.3,9.2,9.2,9.2h85.1h50.8h83.2c4.9,0,9.2-4.3,9.2-9.2V337.2l15.9,11.6C440,348.3,440.6,348.3,441.9,348.3z M321.9,449.2
		h-32.4v-79.6h32.4V449.2z M405.1,449.2h-64.9v-88.7c0-4.9-4.3-9.2-9.2-9.2h-50.8c-4.9,0-9.2,4.3-9.2,9.2v89.4h-66.7V321.9
		l99.8-72.2l101,72.8V449.2z"/>
</g>
</svg>
