<svg xmlns="http://www.w3.org/2000/svg" xmlns:xlink="http://www.w3.org/1999/xlink" version="1.1" id="Layer_1" x="0px" y="0px" width="100px" height="100px" viewBox="5.0 -10.0 100.0 135.0" enable-background="new 0 0 100 100" xml:space="preserve">
<g>
	<path fill="#000000" d="M78.275,26.72H66.541c-5.086,0-5.396-4.507-5.405-5.4V9.514L78.275,26.72z M81.88,65.709l3.489,3.489V28.9   L61.136,4.569V4.455h-0.113L59.076,2.5H18.395C15.318,2.5,9.5,4.364,9.5,11.422v77.155c0,3.087,1.859,8.923,8.895,8.923h58.081   c3.075,0,8.894-1.865,8.894-8.923V83.34l-3.489-3.49v8.728c0,5.108-4.503,5.423-5.41,5.434H18.395   c-5.087,0-5.395-4.532-5.404-5.434V11.422c0-5.112,4.51-5.422,5.404-5.433h39.232l0.021,0.021v15.309   c0,0.478,0.063,1.031,0.169,1.608H25.095c-0.965,0-1.745,0.782-1.745,1.745s0.78,1.744,1.745,1.744H59.16   c1.297,2.062,3.557,3.793,7.381,3.793H81.75l0.13,0.13V65.709z M39.25,51.4c0-1.07,0.105-2.116,0.26-3.145H25.095   c-0.965,0-1.745,0.782-1.745,1.745s0.78,1.743,1.745,1.743h14.173C39.266,51.629,39.25,51.517,39.25,51.4 M25.095,39.081H43.22   c0.913-1.278,1.965-2.444,3.132-3.49H25.095c-0.965,0-1.745,0.782-1.745,1.746C23.35,38.299,24.13,39.081,25.095,39.081    M41.529,60.919H25.095c-0.965,0-1.745,0.781-1.745,1.745c0,0.963,0.78,1.744,1.745,1.744h18.64   C42.891,63.323,42.152,62.156,41.529,60.919 M69.775,73.584H25.095c-0.965,0-1.745,0.781-1.745,1.744   c0,0.964,0.78,1.745,1.745,1.745h44.681c0.965,0,1.745-0.781,1.745-1.745C71.521,74.365,70.74,73.584,69.775,73.584 M60.5,66.9   c-8.547,0-15.5-6.953-15.5-15.5s6.953-15.5,15.5-15.5S76,42.854,76,51.4S69.047,66.9,60.5,66.9 M96.771,83.429l-20.801-20.8   c-0.034-0.034-0.075-0.059-0.111-0.09C78.139,59.404,79.5,55.562,79.5,51.4c0-10.477-8.523-19-19-19s-19,8.523-19,19   s8.523,19,19,19c4.162,0,8.005-1.361,11.139-3.64c0.032,0.035,0.057,0.076,0.09,0.109l20.801,20.801   c0.586,0.586,1.354,0.879,2.121,0.879s1.535-0.293,2.121-0.879C97.943,86.499,97.943,84.6,96.771,83.429"/>
</g>
<text x="0.0" y="117.5" font-size="5.0" font-weight="bold" font-family="Helvetica Neue, Helvetica, Arial-Unicode, Arial, Sans-serif" fill="#000000">Created by Rediffusion</text><text x="0.0" y="122.5" font-size="5.0" font-weight="bold" font-family="Helvetica Neue, Helvetica, Arial-Unicode, Arial, Sans-serif" fill="#000000">from the Noun Project</text></svg>