<svg 
 xmlns="http://www.w3.org/2000/svg"
 xmlns:xlink="http://www.w3.org/1999/xlink"
 width="25px" height="30px">
<path fill-rule="evenodd"  fill="rgb(55, 64, 82)"
 d="M3.345,13.446 C3.345,13.446 2.993,13.446 2.993,13.446 C2.993,13.446 2.993,25.035 2.993,25.035 C2.993,25.035 2.993,25.208 2.993,25.208 C2.993,25.208 3.230,25.208 3.230,25.208 C3.230,25.208 21.479,25.208 21.479,25.208 C21.479,25.208 21.479,24.863 21.479,24.863 C21.479,24.863 3.345,24.863 3.345,24.863 C3.345,24.863 3.345,13.446 3.345,13.446 ZM17.843,23.792 C17.843,23.792 21.478,23.792 21.478,23.792 C21.478,23.792 21.478,13.446 21.478,13.446 C21.478,13.446 17.843,13.446 17.843,13.446 C17.843,13.446 17.843,23.792 17.843,23.792 ZM13.495,23.792 C13.495,23.792 17.129,23.792 17.129,23.792 C17.129,23.792 17.129,17.240 17.129,17.240 C17.129,17.240 13.495,17.240 13.495,17.240 C13.495,17.240 13.495,23.792 13.495,23.792 ZM12.781,23.792 C12.781,23.792 12.781,14.481 12.781,14.481 C12.781,14.481 9.146,14.481 9.146,14.481 C9.146,14.481 9.146,23.792 9.146,23.792 C9.146,23.792 12.781,23.792 12.781,23.792 ZM8.432,23.792 C8.432,23.792 8.432,16.033 8.432,16.033 C8.432,16.033 4.798,16.033 4.798,16.033 C4.798,16.033 4.798,23.792 4.798,23.792 C4.798,23.792 8.432,23.792 8.432,23.792 ZM20.775,6.722 C20.775,6.722 3.873,6.722 3.873,6.722 C3.873,6.722 3.873,7.411 3.873,7.411 C3.873,7.411 20.775,7.411 20.775,7.411 C20.775,7.411 20.775,6.722 20.775,6.722 ZM13.557,8.963 C13.557,8.963 3.873,8.963 3.873,8.963 C3.873,8.963 3.873,9.653 3.873,9.653 C3.873,9.653 13.557,9.653 13.557,9.653 C13.557,9.653 13.557,8.963 13.557,8.963 ZM13.557,4.653 C13.557,4.653 3.873,4.653 3.873,4.653 C3.873,4.653 3.873,5.342 3.873,5.342 C3.873,5.342 13.557,5.342 13.557,5.342 C13.557,5.342 13.557,4.653 13.557,4.653 ZM0.704,29.310 C0.704,29.310 0.704,0.687 0.704,0.687 C0.704,0.687 20.607,0.687 20.607,0.687 C20.607,0.687 20.774,0.888 20.774,0.888 C20.774,0.888 20.774,4.997 20.774,4.997 C20.774,4.997 24.193,4.997 24.193,4.997 C24.193,4.997 24.295,5.120 24.295,5.120 C24.295,5.120 24.295,29.310 24.295,29.310 C24.295,29.310 0.704,29.310 0.704,29.310 ZM20.942,-0.003 C20.942,-0.003 -0.000,-0.003 -0.000,-0.003 C-0.000,-0.003 -0.000,29.999 -0.000,29.999 C-0.000,29.999 25.000,29.999 25.000,29.999 C25.000,29.999 25.000,4.875 25.000,4.875 C25.000,4.875 20.942,-0.003 20.942,-0.003 Z"/>
</svg>