<svg 
 xmlns="http://www.w3.org/2000/svg"
 xmlns:xlink="http://www.w3.org/1999/xlink"
 width="51px" height="66px">
<path fill-rule="evenodd"  fill="rgb(20, 179, 255)"
 d="M51.000,44.722 C51.000,44.722 34.169,65.999 34.169,65.999 C34.169,65.999 40.205,49.201 40.205,49.201 C40.205,49.201 31.749,49.201 31.749,49.201 C31.749,49.201 38.812,33.484 38.812,33.484 C38.812,33.484 49.098,33.585 49.098,33.585 C49.098,33.585 42.200,44.695 42.200,44.695 C42.200,44.695 51.000,44.722 51.000,44.722 ZM4.889,65.999 C4.889,65.999 17.054,32.140 17.054,32.140 C17.054,32.140 0.010,32.140 0.010,32.140 C0.010,32.140 14.565,-0.001 14.565,-0.001 C14.565,-0.001 35.279,0.099 35.279,0.099 C35.279,0.099 21.076,23.057 21.076,23.057 C21.076,23.057 38.813,23.107 38.813,23.107 C38.813,23.107 4.889,65.999 4.889,65.999 Z"/>
</svg>