<?xml version="1.0" encoding="utf-8"?>
<!-- Generator: Adobe Illustrator 18.1.1, SVG Export Plug-In . SVG Version: 6.00 Build 0)  -->
<svg version="1.1" id="Layer_1" xmlns="http://www.w3.org/2000/svg" xmlns:xlink="http://www.w3.org/1999/xlink" x="0px" y="0px"
	 viewBox="25.9 15 561.6 610.5" enable-background="new 25.9 15 561.6 610.5" xml:space="preserve">
<g>
	<path d="M127,607.5L95.8,247.7c0,0,0,0,0-0.1c0-2.3-8.7-4.2-19.3-4.2c-10.7,0-19.3,1.9-19.3,4.2c0,0,0,0,0,0.1L25.9,607.5h0
		c0,9.9,22.6,18,50.5,18C104.4,625.5,127,617.4,127,607.5L127,607.5z"/>
</g>
<g>
	<rect x="302.6" y="441.5" width="41.8" height="33.1"/>
	<rect x="370.6" y="441.5" width="41.8" height="33.1"/>
	<rect x="438.7" y="441.5" width="41.7" height="33.1"/>
	<rect x="438.7" y="491" width="41.7" height="33.1"/>
	<rect x="370.6" y="491" width="41.8" height="33.1"/>
	<rect x="302.6" y="491" width="41.8" height="33.1"/>
</g>
<path d="M124.1,204.5c-4.2,0-8.3-2.4-10.4-6.4c-2.9-5.7-0.6-12.7,5.2-15.6c4.9-2.4,7.7-6,9.1-11.1l3-11.9l11.7,3.7
	c7.5,2.4,15.5,3.6,23.7,3.6c19.7,0,37.8-6.9,48.5-18.6l6.6-7.2l8.2,5.3c22.3,14.3,53.9,22.6,86.8,22.6c63,0,116.2-30.2,116.2-66
	c0-4.1-0.7-8.2-2.1-12.2c-2.1-6.1,1.2-12.7,7.2-14.7c6.1-2.1,12.7,1.2,14.7,7.2c2.2,6.4,3.3,13.1,3.3,19.8
	c0,50.1-61.3,89.3-139.5,89.3c-34.1,0-66.2-7.6-91.5-21.6c-15,12.3-36.3,19.5-58.6,19.5c-6.9,0-13.8-0.7-20.4-2
	c-3.8,6.5-9.5,11.7-16.7,15.3C127.7,204.1,125.9,204.5,124.1,204.5z"/>
<path d="M74.9,189.9c-4.5,0-8.7-2.6-10.6-6.9c-2.1-4.8-3.2-9.8-3.2-15c0-15.6,10-29.6,25-36.3c-0.1-1.4-0.2-2.7-0.2-4.1
	c0-34.4,36.1-62.3,80.5-62.3c7.4,0,14.7,0.8,21.7,2.3c21.5-32.7,71.4-54.1,128.4-54.1c11.1,0,22.2,0.8,33.1,2.5
	c6.3,1,10.7,6.9,9.7,13.2c-1,6.3-6.9,10.7-13.2,9.7c-9.7-1.5-19.7-2.2-29.6-2.2c-52.2,0-98.4,20.3-112.3,49.4l-4.4,9.1l-9.6-3.1
	c-7.5-2.4-15.6-3.6-23.8-3.6c-31,0-57.2,17.9-57.2,39.1c0,2.7,0.5,5.4,1.4,8.3l4.2,12.7l-13.2,2.3c-10,1.8-17.3,8.9-17.3,17
	c0,1.9,0.4,3.8,1.2,5.6c2.6,5.9-0.1,12.7-5.9,15.3C78.1,189.6,76.5,189.9,74.9,189.9z"/>
<path fill="none" stroke="#000000" stroke-width="3" stroke-linecap="round" stroke-miterlimit="10" d="M90.9,204.4"/>
<path d="M575.7,324.9c-6.2-5.5-14.1-8.1-22.5-7.1l-69.7,8v-67.5h-61.2v74.2l-18.4,2.3v-52h-61.2v58.8l-187,21.3
	c-8.5,1-14.7,8.6-13.8,17.1s7.9,14.6,16.3,13.6l392.5-44.8v215.5H173c-8.5,0-15.5,9.8-15.5,18.4c0,8.5,6.9,18.4,15.5,18.4h379.2
	c17.1,0,35.2-20.9,35.2-38V346.9C587.5,338.4,581.8,330.4,575.7,324.9z"/>
</svg>
