<?xml version="1.0" encoding="utf-8"?>
<!-- Generator: Adobe Illustrator 18.1.1, SVG Export Plug-In . SVG Version: 6.00 Build 0)  -->
<svg version="1.1"
	 id="svg4501" sodipodi:docname="flame.svg" inkscape:version="0.42+devel" sodipodi:docbase="/home/rejon/Documents/projects/create-project/logo" sodipodi:version="0.32" xmlns:inkscape="http://www.inkscape.org/namespaces/inkscape" xmlns:rdf="http://www.w3.org/1999/02/22-rdf-syntax-ns#" xmlns:dc="http://purl.org/dc/elements/1.1/" xmlns:cc="http://web.resource.org/cc/" xmlns:svg="http://www.w3.org/2000/svg" xmlns:sodipodi="http://inkscape.sourceforge.net/DTD/sodipodi-0.dtd"
	 xmlns="http://www.w3.org/2000/svg" xmlns:xlink="http://www.w3.org/1999/xlink" x="0px" y="0px" viewBox="0 0 612 792"
	 enable-background="new 0 0 612 792" xml:space="preserve">
<g>
	<g display="none">
		<path display="inline" fill="#FFFFFF" d="M283.9,14.8c-46,325.7-192.4,328.5-208.3,496.8C59.5,680.6,231.5,784.8,259.8,792
			c0,0-80.8-93.4-73.2-173.1c5.3-55.2,28-75.2,70.9-135.7c30.8-43.4,65.7-103.2,91.3-191.1C440,371.9,479,418.3,497.3,514.7
			s-56.9,269.5-56.9,269.5C712.2,579.2,642.5,266.2,283.9,14.8z"/>
	</g>
	<g>
		<path d="M272.6,799.9l-13.9-3.5c-15.9-4.1-66.5-32.8-110.9-80.8C108,672.6,62.4,602.3,71.1,511.2c6.9-73.2,38.3-116,74.7-165.5
			c47.8-65.1,107.4-146.2,133.6-331.5l1-7.3l6,4.2c103.3,72.4,183.9,150.5,239.5,232c54.8,80.4,83.3,161,84.6,239.6
			c2,115.5-55.9,221-167.5,305.1l-13.6,10.3l6.8-15.7c0.7-1.7,74.4-172.9,56.6-266.9c-17.3-91.3-52.5-136.8-141.8-215.4
			c-21,69.8-49.7,129-89.9,185.7c-7.9,11.1-15.1,21-21.6,29.6c-28.6,38.7-44.3,60-48.5,103.9c-7.3,76.8,71.3,168.8,72.1,169.7
			L272.6,799.9z M287.3,22.7c-27,182.5-86.4,263.2-134.2,328.3c-35.6,48.5-66.4,90.3-73,161c-8.4,87.8,35.8,155.8,74.3,197.4
			c33.2,35.8,69.3,60.2,90.8,71.4c-7.7-10.2-18.3-25.2-28.7-43.2c-26-45-37.6-85.1-34.3-119.1c4.5-46.4,20.7-68.4,50.2-108.4
			c6.4-8.7,13.6-18.5,21.5-29.5c40.9-57.7,69.8-118,90.7-189.8l2-6.8l5.3,4.6c43.9,38.4,78.1,71.1,102.3,105.9
			c23.8,34.1,38.5,70.9,47.6,119.3c7.7,40.7,0.4,98.9-21.7,173c-10.5,35.2-22.1,65.8-29,83.4c100.5-80.5,152.5-179.6,150.6-287.4
			C598.9,327.8,487.3,164.6,287.3,22.7z"/>
	</g>
</g>
</svg>
