<svg 
 xmlns="http://www.w3.org/2000/svg"
 xmlns:xlink="http://www.w3.org/1999/xlink"
 width="30px" height="66px">
<path fill-rule="evenodd"  fill="rgb(132, 56, 205)"
 d="M14.968,64.001 C14.968,64.001 1.596,52.060 15.662,38.515 C15.662,38.515 28.688,50.278 14.968,64.001 ZM14.870,0.095 C14.870,0.095 14.870,0.001 14.870,0.001 C14.869,0.017 14.867,0.033 14.867,0.048 C14.866,0.032 14.863,0.017 14.863,0.001 C14.863,0.001 14.863,0.094 14.863,0.094 C13.922,13.826 0.434,33.914 -0.006,44.461 C-0.444,54.965 14.823,65.898 15.011,65.999 C15.011,65.999 15.011,66.001 15.011,66.001 C15.011,66.001 15.016,66.001 15.017,65.999 C15.017,66.001 15.019,66.001 15.019,66.001 C15.019,66.001 15.019,65.999 15.019,65.999 C15.207,65.898 30.432,54.965 29.994,44.461 C29.555,33.914 15.811,13.827 14.870,0.095 Z"/>
</svg>