<?xml version="1.0" encoding="utf-8"?>
<!-- Generator: Adobe Illustrator 18.1.1, SVG Export Plug-In . SVG Version: 6.00 Build 0)  -->
<svg version="1.1" id="Layer_1" xmlns="http://www.w3.org/2000/svg" xmlns:xlink="http://www.w3.org/1999/xlink" x="0px" y="0px"
	 viewBox="-269.3 375 26.7 30.1" enable-background="new -269.3 375 26.7 30.1" xml:space="preserve">
<path d="M-245.6,384.5l1-0.6l-4.8-5.4l-0.8,0.6c5.8,7.2,7.9,17.9,5.7,20c-0.8,0.8-2.1,1.2-3.5,1.1c-1.2-0.1-2.3-0.6-2.9-1.4
	c-0.6-0.8-0.2-3.4,0.2-5.6c0.5-3,1-5.9-0.3-7c-0.7-0.6-1.6-0.7-2.4-0.7v-7.7v-2.1c0-0.4-0.3-0.7-0.7-0.7h-14.1
	c-0.4,0-0.7,0.3-0.7,0.7v2.1v9.7v16.1h-0.5v1.4h16.6v-1.4h-0.5v-16.1v-1c0.6,0,1.3,0.1,1.7,0.4c0.9,0.8,0.4,3.6,0,6.1
	c-0.5,2.7-0.9,5.2,0,6.3c0.8,1,2.1,1.7,3.6,1.8c0.2,0,0.3,0,0.5,0c1.5,0,2.9-0.5,3.8-1.4C-241.7,397.8-242.6,390.9-245.6,384.5z
	 M-254.6,384.2c0,0.4-0.3,0.7-0.7,0.7h-11.3c-0.4,0-0.7-0.3-0.7-0.7v-7c0-0.4,0.3-0.7,0.7-0.7h11.3c0.4,0,0.7,0.3,0.7,0.7
	C-254.6,377.2-254.6,384.2-254.6,384.2z"/>
</svg>
