<svg 
 xmlns="http://www.w3.org/2000/svg"
 xmlns:xlink="http://www.w3.org/1999/xlink"
 width="30px" height="32px">
<path fill-rule="evenodd"  fill="rgb(55, 64, 82)"
 d="M13.147,21.964 C12.951,22.620 12.557,23.144 11.967,23.472 C11.967,23.472 11.967,23.505 11.967,23.505 C11.344,23.833 10.721,23.931 10.066,23.735 C9.377,23.571 8.885,23.177 8.524,22.554 C8.197,21.964 8.098,21.342 8.262,20.653 C8.459,19.998 8.852,19.506 9.443,19.145 C10.066,18.785 10.688,18.687 11.344,18.883 C12.000,19.047 12.525,19.441 12.885,20.063 C13.246,20.653 13.311,21.309 13.147,21.964 ZM11.574,18.064 C10.688,17.801 9.803,17.933 9.016,18.391 C8.197,18.851 7.705,19.539 7.475,20.456 C7.213,21.342 7.311,22.194 7.770,22.980 C7.770,22.980 7.803,22.980 7.803,22.980 C8.262,23.800 8.951,24.291 9.836,24.554 C10.721,24.783 11.574,24.685 12.393,24.226 C13.213,23.735 13.705,23.079 13.967,22.194 C13.967,22.194 13.967,22.161 13.967,22.161 C14.197,21.276 14.065,20.424 13.606,19.637 C13.147,18.817 12.459,18.293 11.574,18.064 ZM14.459,22.325 C14.197,23.374 13.574,24.161 12.656,24.685 C11.672,25.242 10.688,25.374 9.672,25.079 C8.623,24.816 7.803,24.193 7.279,23.276 C6.721,22.325 6.590,21.342 6.885,20.292 C7.147,19.244 7.770,18.457 8.721,17.900 C9.639,17.376 10.656,17.244 11.672,17.506 C12.721,17.801 13.541,18.391 14.065,19.342 C14.623,20.292 14.754,21.276 14.459,22.325 ZM18.656,21.145 C18.656,20.752 18.623,20.326 18.525,19.932 C18.492,19.637 18.393,19.342 18.328,19.047 C19.082,18.523 19.836,17.965 20.557,17.408 C20.557,17.408 20.557,17.408 20.590,17.408 C20.197,16.425 19.672,15.507 18.951,14.655 C18.098,15.015 17.279,15.409 16.459,15.802 C16.229,15.573 16.000,15.343 15.770,15.147 C15.475,14.917 15.180,14.688 14.852,14.524 C14.754,14.425 14.623,14.360 14.524,14.294 C14.656,13.377 14.820,12.459 14.951,11.541 C14.557,11.377 14.131,11.213 13.705,11.082 C13.606,11.050 13.475,11.017 13.377,11.017 C13.246,10.951 13.147,10.918 13.049,10.918 C12.656,10.820 12.262,10.754 11.869,10.689 C11.508,11.574 11.213,12.426 10.918,13.278 C10.754,13.278 10.590,13.278 10.459,13.278 C10.393,13.278 10.361,13.278 10.328,13.278 C9.934,13.311 9.574,13.344 9.213,13.409 C8.918,13.442 8.623,13.540 8.328,13.639 C7.803,12.885 7.246,12.131 6.721,11.409 C6.688,11.377 6.688,11.377 6.688,11.377 C6.492,11.442 6.295,11.508 6.131,11.606 C5.803,11.737 5.508,11.901 5.213,12.098 C4.754,12.328 4.328,12.623 3.934,12.983 C3.934,12.983 3.934,12.983 3.934,13.016 C4.328,13.836 4.688,14.655 5.082,15.474 C4.852,15.704 4.656,15.900 4.459,16.162 C4.197,16.425 3.967,16.752 3.770,17.080 C3.672,17.212 3.606,17.343 3.541,17.506 C2.623,17.343 1.705,17.179 0.787,17.048 C0.623,17.441 0.459,17.834 0.328,18.260 C0.197,18.916 0.066,19.539 -0.000,20.162 C0.852,20.490 1.705,20.817 2.557,21.145 C2.557,21.276 2.557,21.440 2.557,21.604 C2.557,21.964 2.590,22.358 2.689,22.751 C2.721,23.079 2.820,23.407 2.918,23.735 C2.164,24.259 1.443,24.783 0.688,25.341 C1.082,26.324 1.639,27.242 2.295,28.094 C2.295,28.094 2.295,28.094 2.328,28.094 C3.147,27.701 3.967,27.340 4.820,26.947 C5.016,27.143 5.213,27.307 5.410,27.504 C5.705,27.767 6.065,27.996 6.459,28.225 C6.557,28.291 6.688,28.356 6.820,28.455 C6.656,29.340 6.524,30.257 6.393,31.175 C6.754,31.339 7.115,31.471 7.508,31.568 C7.607,31.601 7.803,31.667 8.131,31.732 C8.590,31.864 9.049,31.929 9.475,31.995 C9.836,31.109 10.164,30.257 10.459,29.372 C10.590,29.372 10.721,29.372 10.852,29.372 C10.852,29.372 10.885,29.372 10.885,29.372 C11.279,29.372 11.639,29.340 12.000,29.274 C12.328,29.209 12.656,29.110 12.984,29.012 C12.984,29.012 12.984,29.045 13.016,29.045 C13.541,29.798 14.098,30.553 14.623,31.306 C14.787,31.208 14.951,31.143 15.082,31.077 C15.410,30.946 15.705,30.782 16.000,30.618 C16.492,30.323 16.951,29.995 17.377,29.635 C17.016,28.783 16.623,27.963 16.229,27.111 C16.426,26.914 16.590,26.718 16.787,26.521 C17.016,26.226 17.246,25.898 17.443,25.603 C17.443,25.570 17.475,25.537 17.475,25.504 C17.541,25.406 17.606,25.275 17.672,25.177 C18.590,25.341 19.508,25.472 20.426,25.636 C20.590,25.242 20.721,24.849 20.852,24.423 C20.885,24.325 20.918,24.226 20.951,24.095 C20.984,23.997 20.984,23.898 21.049,23.767 C21.115,23.342 21.213,22.915 21.246,22.522 C20.393,22.161 19.508,21.866 18.656,21.538 C18.656,21.407 18.656,21.309 18.656,21.145 ZM23.180,9.607 C22.787,10.001 22.328,10.197 21.803,10.197 C21.279,10.197 20.820,10.001 20.426,9.607 C20.065,9.247 19.869,8.787 19.869,8.230 C19.869,7.706 20.065,7.247 20.426,6.853 C20.820,6.493 21.279,6.296 21.803,6.296 C22.328,6.296 22.787,6.493 23.180,6.853 C23.574,7.247 23.738,7.673 23.738,8.230 C23.738,8.787 23.574,9.247 23.180,9.607 ZM21.803,5.641 C21.082,5.641 20.492,5.903 19.967,6.395 C19.475,6.919 19.213,7.509 19.213,8.230 C19.213,8.951 19.475,9.542 19.967,10.066 C20.492,10.590 21.082,10.853 21.803,10.853 C22.525,10.853 23.115,10.590 23.639,10.066 C24.164,9.542 24.394,8.951 24.394,8.230 C24.394,7.509 24.164,6.919 23.639,6.395 C23.115,5.903 22.525,5.641 21.803,5.641 ZM23.934,10.394 C23.311,10.984 22.623,11.278 21.771,11.278 C20.951,11.278 20.229,10.984 19.639,10.394 C19.049,9.771 18.754,9.083 18.754,8.230 C18.754,7.411 19.049,6.689 19.639,6.100 C20.229,5.477 20.951,5.182 21.771,5.215 C22.623,5.182 23.311,5.477 23.934,6.100 C24.524,6.689 24.820,7.411 24.820,8.230 C24.820,9.083 24.524,9.771 23.934,10.394 ZM29.902,7.018 C29.213,6.952 28.492,6.886 27.770,6.821 C27.737,6.723 27.705,6.624 27.705,6.526 C27.607,6.231 27.508,5.936 27.377,5.641 C27.279,5.444 27.147,5.215 27.049,5.018 C27.475,4.494 27.934,3.937 28.393,3.379 C28.393,3.346 28.393,3.346 28.393,3.346 C27.901,2.691 27.311,2.134 26.623,1.609 C26.623,1.609 26.623,1.642 26.623,1.642 C26.066,2.068 25.508,2.527 24.984,2.986 C24.754,2.855 24.557,2.756 24.360,2.658 C24.098,2.527 23.836,2.396 23.541,2.330 C23.443,2.298 23.344,2.264 23.246,2.264 C23.180,1.544 23.115,0.822 23.016,0.101 C22.688,0.036 22.361,0.036 22.000,0.003 C21.901,0.003 21.803,0.003 21.738,0.003 C21.639,0.003 21.541,0.003 21.475,0.003 C21.147,0.036 20.852,0.036 20.557,0.101 C20.459,0.790 20.393,1.511 20.360,2.232 C20.229,2.232 20.131,2.264 20.000,2.298 C19.967,2.298 19.934,2.298 19.902,2.330 C19.639,2.396 19.377,2.527 19.115,2.658 C18.885,2.756 18.688,2.855 18.492,2.986 C17.934,2.527 17.410,2.101 16.853,1.642 C16.853,1.642 16.853,1.642 16.819,1.609 C16.689,1.707 16.557,1.806 16.459,1.904 C16.229,2.068 16.033,2.264 15.869,2.461 C15.574,2.723 15.344,3.051 15.082,3.379 C15.082,3.379 15.082,3.379 15.115,3.379 C15.541,3.937 16.000,4.461 16.459,5.018 C16.328,5.215 16.197,5.444 16.098,5.641 C15.967,5.903 15.869,6.198 15.803,6.460 C15.738,6.591 15.705,6.723 15.705,6.821 C14.984,6.886 14.262,6.952 13.574,7.050 C13.508,7.378 13.475,7.706 13.475,8.066 C13.475,8.558 13.508,9.050 13.606,9.509 C14.295,9.574 14.984,9.640 15.705,9.705 C15.705,9.837 15.738,9.967 15.803,10.066 C15.869,10.361 15.967,10.623 16.098,10.918 C16.229,11.148 16.328,11.377 16.492,11.574 C16.033,12.131 15.574,12.655 15.147,13.213 C15.639,13.901 16.229,14.491 16.918,14.983 C16.918,14.983 16.918,14.950 16.918,14.950 C17.443,14.524 18.000,14.065 18.525,13.606 C18.525,13.606 18.557,13.606 18.557,13.606 C18.721,13.704 18.918,13.803 19.082,13.901 C19.377,14.032 19.705,14.163 20.000,14.229 C20.131,14.262 20.229,14.294 20.328,14.327 C20.393,15.015 20.459,15.736 20.557,16.458 C20.852,16.490 21.147,16.523 21.475,16.523 C21.541,16.523 21.738,16.523 21.967,16.523 C22.328,16.523 22.688,16.490 23.049,16.425 C23.115,15.736 23.180,15.015 23.246,14.294 C23.344,14.262 23.443,14.229 23.541,14.196 C23.836,14.130 24.098,14.032 24.360,13.901 C24.590,13.803 24.820,13.671 25.049,13.508 C25.049,13.540 25.049,13.540 25.082,13.540 C25.606,13.999 26.164,14.458 26.721,14.884 C26.820,14.819 26.918,14.753 27.049,14.655 C27.246,14.491 27.443,14.294 27.607,14.098 C27.901,13.803 28.197,13.475 28.459,13.114 C28.000,12.557 27.541,12.000 27.082,11.475 C27.082,11.442 27.082,11.442 27.082,11.442 C27.180,11.278 27.279,11.082 27.377,10.886 C27.475,10.623 27.607,10.361 27.672,10.098 C27.672,10.066 27.672,10.033 27.705,10.033 C27.705,9.902 27.737,9.803 27.770,9.738 C28.492,9.673 29.213,9.607 29.902,9.542 C29.967,9.214 29.967,8.886 30.000,8.558 C30.000,8.460 30.000,8.361 30.000,8.263 C30.000,8.197 30.000,8.100 30.000,8.001 C29.967,7.673 29.967,7.345 29.902,7.018 Z"/>
</svg>