<?xml version="1.0" encoding="utf-8"?>
<!-- Generator: Adobe Illustrator 18.0.0, SVG Export Plug-In . SVG Version: 6.00 Build 0)  -->
<!DOCTYPE svg PUBLIC "-//W3C//DTD SVG 1.1//EN" "http://www.w3.org/Graphics/SVG/1.1/DTD/svg11.dtd">
<svg version="1.1" id="Layer_1" xmlns="http://www.w3.org/2000/svg" xmlns:xlink="http://www.w3.org/1999/xlink" x="0px" y="0px"
	 viewBox="0 0 63 66" enable-background="new 0 0 63 66" xml:space="preserve">
<path fill="#E4493A" d="M62.7,22.9c-1.2,1.7-3.3,2.5-4.5,4.4c-1.2,2-1.4,4.9-1.1,7.2c0.1,0.4,0.2,0.8,0.3,1.1
	c0.2,0.5,0.4,1.1,0.7,1.5c0.4,0.8,1.1,1.7,1.8,2.3c0.6,0.5,2,1.1,2,2c0,0.7-0.9,1.5-1.2,2.2c-0.8,1.8-1.2,3.6-2.2,5.2
	c-1.4,2.2-2.6,4.4-3.6,6.8c-1.1-0.1-1.5-0.6-2.4-1.1c-1.2-0.7-2.5-1-3.8-0.7c-0.9,0.2-1.8-0.1-2.7,0.3c-0.9,0.3-1.9,1-2.5,1.8
	c-0.7,1-1.7,1.7-2.3,2.8c-0.7,1.4-1,3-0.7,4.6c0.1,0.7,0.4,2.1-0.5,2.4c-0.5,0.1-1.2,0.2-1.7,0.2c-2.4,0-4.9,0.1-7.4,0.1
	c-1.9,0-3.7-0.2-5.6-0.1c-0.4,0-1.7,0.3-2,0.1c-0.1,0-0.1-0.1-0.1-0.2C22.9,65.1,23,63.4,23,63c-0.1-0.7-0.1-1.5-0.3-2.2
	c-0.4-2-1.4-3.8-3-5.1c-1.1-0.9-2.8-1.6-4.2-2c-1.8-0.5-3.2-0.5-5-0.3c-0.9,0.1-1.7,0.7-2.5,1c-0.9,0.3-1-0.2-1.4-1
	c-2-3.8-3.8-7.7-6.2-11.2c-1-1.5,0.3-1.7,1.6-2.1c1-0.3,2-0.8,2.8-1.6c0.7-0.8,1.3-2.2,1.5-3.2c0.2-1,0.1-2.1,0.1-3.1
	c0-1.5,0-3.3-0.5-4.7c-0.5-1.2-1.7-2.5-2.6-3.5c-0.9-1-2.4-1.3-3.2-2.5c2.5-1.9,4.2-4.8,5.8-7.4c0.6-1,1.2-2.3,2-3.2
	c0.3-0.3,0.9-1.1,1.4-1c0.5,0.1,0.8,0.6,1.2,0.8c0.4,0.2,0.8,0.3,1.2,0.4c0.9,0.2,1.9,0.5,2.8,0.6c1.2,0.2,2.1-0.2,3.2-0.6
	c1.8-0.6,3.3-1.5,4.5-2.9c0.9-1.1,1.2-2.4,1.4-3.7c0-0.1,0-0.1,0-0.2c0.2-1.3,0-2.7,0.3-3.9C25.9,0.2,28-0.1,30.2,0
	c2.4,0.1,4.8,0.1,7.2,0.1c0.4,0,1.5-0.2,1.8,0.1c0.4,0.4,0.1,2,0.1,2.5c0,0.7,0,1.5,0.1,2.2c0.3,2.5,1.1,4.4,3.2,5.9
	c1.4,1,3.3,1.4,4.9,1.5c1.9,0.2,3.7,0,5.4-0.9c0.7-0.4,1.4-1.3,2.2-1.3c1-0.1,1.4,1.1,1.7,1.8c0.5,1.7,1.7,3.1,2.8,4.5
	c0.5,0.6,1,1.1,1.2,1.8c0.3,1,0.8,1.6,1.4,2.4C62.8,21.4,63.4,22,62.7,22.9z M42.9,27.2c-0.6-1.8-1.4-3.2-3-4.2
	c-1.8-1.1-3.6-2.2-5.7-2.7c-1.4-0.3-2.9-0.5-4.3-0.3c-1.2,0.2-2.7,0.5-3.8,1c-0.7,0.3-1.5,0.6-2.2,1c-0.6,0.4-1.3,0.7-1.8,1.1
	c-0.9,0.7-1.8,1.4-2.4,2.4c-0.8,1.4-1.4,2.8-1.6,4.4c-0.4,4.7,2,9.5,5.3,12.6c1.9,1.8,4.4,1.9,7,1.9c1.6,0,3.1-0.4,4.7-0.5
	c1.7-0.2,3.5-1.3,4.8-2.4c0.8-0.8,1.2-1.8,1.6-2.8C43.1,35.2,44.2,31,42.9,27.2z"/>
</svg>
