<svg 
 xmlns="http://www.w3.org/2000/svg"
 xmlns:xlink="http://www.w3.org/1999/xlink"
 width="89px" height="65px">
<path fill-rule="evenodd"  fill="rgb(236, 140, 18)"
 d="M27.252,-0.002 C27.213,0.057 25.592,2.375 23.938,5.492 C23.110,7.054 22.274,8.816 21.619,10.636 C20.979,12.459 20.498,14.328 20.490,16.233 C20.490,16.835 20.539,17.443 20.665,18.045 C21.027,19.760 21.778,21.285 22.625,22.804 C23.900,25.062 25.432,27.315 26.599,29.603 C27.774,31.897 28.556,34.162 28.552,36.410 C28.552,37.017 28.498,37.632 28.377,38.262 C27.713,41.786 25.548,45.095 23.469,47.468 C22.440,48.650 21.441,49.601 20.720,50.246 C20.357,50.561 20.064,50.814 19.866,50.976 C19.866,50.976 19.641,51.144 19.641,51.144 C19.641,51.144 19.586,51.191 19.586,51.191 C19.586,51.191 22.614,55.298 22.614,55.298 C22.705,55.223 24.867,53.610 27.285,50.837 C29.691,48.059 32.411,44.119 33.364,39.230 C33.546,38.277 33.631,37.334 33.631,36.410 C33.611,31.812 31.598,27.956 29.700,24.712 C28.738,23.088 27.785,21.603 27.049,20.286 C26.301,18.973 25.798,17.822 25.634,17.000 C25.634,17.000 25.569,16.233 25.569,16.233 C25.562,15.265 25.867,13.850 26.400,12.367 C27.197,10.129 28.464,7.725 29.520,5.929 C30.051,5.023 30.527,4.267 30.870,3.742 C30.870,3.742 31.271,3.139 31.271,3.139 C31.271,3.139 31.408,2.943 31.408,2.943 C31.408,2.943 27.252,-0.002 27.252,-0.002 M45.632,-0.002 C45.598,0.057 43.974,2.371 42.322,5.488 C41.495,7.047 40.655,8.808 40.011,10.628 C39.367,12.451 38.882,14.321 38.875,16.225 C38.878,16.829 38.928,17.439 39.053,18.052 C39.412,19.757 40.163,21.285 41.010,22.804 C42.279,25.066 43.817,27.319 44.983,29.608 C46.159,31.905 46.943,34.170 46.937,36.421 C46.937,37.026 46.883,37.632 46.765,38.262 C46.097,41.787 43.931,45.096 41.853,47.468 C40.823,48.650 39.828,49.602 39.104,50.247 C38.745,50.571 38.448,50.815 38.249,50.976 C38.249,50.976 38.029,51.146 38.029,51.146 C38.029,51.146 37.974,51.191 37.974,51.191 C37.974,51.191 41.003,55.298 41.003,55.298 C41.093,55.223 43.256,53.610 45.670,50.837 C48.076,48.059 50.790,44.119 51.752,39.237 C51.935,38.278 52.015,37.334 52.015,36.419 C51.998,31.820 49.986,27.960 48.083,24.716 C47.121,23.092 46.168,21.606 45.432,20.290 C44.689,18.973 44.185,17.826 44.021,17.004 C44.021,17.004 43.953,16.224 43.953,16.224 C43.945,15.253 44.253,13.841 44.788,12.359 C45.581,10.120 46.847,7.722 47.903,5.921 C48.428,5.023 48.906,4.262 49.248,3.741 C49.248,3.741 49.650,3.135 49.650,3.135 C49.650,3.135 49.786,2.942 49.786,2.942 C49.786,2.942 45.632,-0.002 45.632,-0.002 M64.021,-0.002 C63.983,0.057 62.362,2.371 60.710,5.488 C59.882,7.047 59.044,8.808 58.401,10.628 C57.755,12.451 57.272,14.321 57.263,16.225 C57.266,16.829 57.317,17.439 57.441,18.052 C57.801,19.757 58.552,21.285 59.399,22.804 C60.676,25.062 62.205,27.315 63.372,29.608 C64.551,31.897 65.332,34.162 65.329,36.411 C65.329,37.019 65.276,37.632 65.154,38.262 C64.487,41.787 62.316,45.096 60.239,47.461 C59.206,48.650 58.210,49.602 57.490,50.247 C57.126,50.563 56.834,50.815 56.636,50.976 C56.636,50.976 56.410,51.146 56.410,51.146 C56.410,51.146 56.356,51.191 56.356,51.191 C56.356,51.191 59.383,55.298 59.383,55.298 C59.475,55.223 61.637,53.610 64.056,50.837 C66.461,48.059 69.180,44.119 70.141,39.237 C70.324,38.278 70.407,37.334 70.407,36.410 C70.387,31.812 68.375,27.956 66.472,24.712 C65.511,23.088 64.557,21.603 63.821,20.286 C63.077,18.973 62.574,17.826 62.410,17.004 C62.410,17.004 62.342,16.224 62.342,16.224 C62.334,15.253 62.643,13.841 63.176,12.359 C63.970,10.120 65.236,7.722 66.292,5.921 C66.817,5.023 67.295,4.262 67.637,3.741 C67.637,3.741 68.039,3.135 68.039,3.135 C68.039,3.135 68.175,2.942 68.175,2.942 C68.175,2.942 64.021,-0.002 64.021,-0.002 M0.014,59.875 C0.014,59.875 88.986,59.875 88.986,59.875 C88.986,59.875 88.986,64.988 88.986,64.988 C88.986,64.988 0.014,64.988 0.014,64.988 C0.014,64.988 0.014,59.875 0.014,59.875 Z"/>
</svg>