<svg 
 xmlns="http://www.w3.org/2000/svg"
 xmlns:xlink="http://www.w3.org/1999/xlink"
 width="19px" height="18px">
<path fill-rule="evenodd"  fill="rgb(0, 0, 0)"
 d="M0.995,8.786 C0.995,8.786 9.181,1.447 9.181,1.447 C9.181,1.447 17.367,8.786 17.367,8.786 C17.475,8.883 17.608,8.930 17.742,8.930 C17.901,8.930 18.059,8.861 18.172,8.727 C18.379,8.481 18.352,8.109 18.116,7.894 C18.116,7.894 9.555,0.219 9.555,0.219 C9.341,0.027 9.022,0.027 8.808,0.219 C8.808,0.219 5.757,2.954 5.757,2.954 C5.757,2.954 5.757,1.846 5.757,1.846 C5.757,1.195 5.245,0.666 4.616,0.666 C3.986,0.666 3.474,1.195 3.474,1.846 C3.474,1.846 3.474,5.000 3.474,5.000 C3.474,5.000 0.246,7.894 0.246,7.894 C0.009,8.108 -0.017,8.481 0.190,8.727 C0.397,8.973 0.757,9.000 0.995,8.786 ZM6.898,11.292 C6.898,11.292 11.464,11.292 11.464,11.292 C11.464,11.292 11.464,17.195 11.464,17.195 C11.464,17.195 14.888,17.195 14.888,17.195 C15.517,17.195 16.029,16.666 16.029,16.014 C16.029,16.014 16.029,10.229 16.029,10.229 C16.029,9.873 15.876,9.539 15.610,9.316 C15.610,9.316 9.904,4.475 9.904,4.475 C9.695,4.298 9.438,4.208 9.181,4.208 C8.924,4.208 8.667,4.298 8.457,4.475 C8.457,4.475 2.751,9.316 2.751,9.316 C2.486,9.539 2.333,9.873 2.333,10.229 C2.333,10.229 2.333,16.014 2.333,16.014 C2.333,16.666 2.844,17.195 3.474,17.195 C3.474,17.195 6.898,17.195 6.898,17.195 C6.898,17.195 6.898,11.292 6.898,11.292 Z"/>
</svg>