<?xml version="1.0" encoding="utf-8"?>
<!-- Generator: Adobe Illustrator 18.1.1, SVG Export Plug-In . SVG Version: 6.00 Build 0)  -->
<svg version="1.1" id="Capa_1" xmlns="http://www.w3.org/2000/svg" xmlns:xlink="http://www.w3.org/1999/xlink" x="0px" y="0px"
	 viewBox="-222.6 348.1 37.7 66.7" enable-background="new -222.6 348.1 37.7 66.7" xml:space="preserve">
<g id="Capa_24">
	<path d="M-203.7,348.1c-10.4,0-18.9,8.4-18.9,18.9c0,0.5,0,1.1,0.1,1.6c0,0.2,0,0.4,0.1,0.6c0,0.3,0.1,0.6,0.1,0.9
		c0,0.2,0.1,0.5,0.1,0.7c0,0.2,0.1,0.3,0.1,0.5c1.7,7.5,7.5,13.4,12,23.7c1.3,3.1,2.5,6.4,3.5,9.4l2.9,10.4l2.9-10.4
		c1-3,2.1-6.3,3.5-9.4c4.5-10.2,10.3-16.2,12-23.7c0-0.2,0.1-0.3,0.1-0.5c0-0.2,0.1-0.5,0.1-0.7c0-0.3,0.1-0.6,0.1-0.9
		c0-0.2,0-0.4,0.1-0.6c0-0.5,0.1-1.1,0.1-1.6C-184.8,356.6-193.3,348.1-203.7,348.1z M-203.7,375.5c-4.7,0-8.5-3.8-8.5-8.5
		s3.8-8.5,8.5-8.5c4.7,0,8.5,3.8,8.5,8.5S-199,375.5-203.7,375.5z"/>
</g>
</svg>
