<?xml version="1.0" encoding="utf-8"?>
<!-- Generator: Adobe Illustrator 18.1.1, SVG Export Plug-In . SVG Version: 6.00 Build 0)  -->
<svg version="1.1" id="Layer_1" xmlns="http://www.w3.org/2000/svg" xmlns:xlink="http://www.w3.org/1999/xlink" x="0px" y="0px"
	 viewBox="90.8 64.2 569.2 765" enable-background="new 90.8 64.2 569.2 765" xml:space="preserve">
<path d="M168,243.6L168,243.6c-3.8,0-6.8-3.1-6.8-6.8v-40.5c-0.4-7.8,4.7-14.4,9.2-20.1c3-3.8,6.3-7.8,6.4-11s-3.1-7.4-6.4-11.5
	c-4.1-5.4-8.8-11.4-9.2-18.8c-0.6-8.3,4.6-15.2,9.1-21.2c3.1-4.1,6.4-8.5,6.5-11.8c0.3-5.5-8.3-18.4-14.1-25.3
	c-2.4-2.8-2-7.3,0.9-9.7c2.8-2.4,7.3-2.1,9.7,0.9c3,3.6,17.8,21.9,17.2,34.7c-0.4,7.5-5.1,13.8-9.2,19.3c-3.3,4.4-6.7,9-6.4,12.2
	c0.1,3.1,3.4,7.3,6.4,11.2c4.6,5.8,9.7,12.5,9.2,20.8c-0.4,7.4-5.1,13.4-9.4,18.6c-3.1,4-6.5,8.1-6.3,11.2v41
	C174.8,240.6,171.7,243.6,168,243.6z"/>
<path d="M249.5,243.6L249.5,243.6c-3.8,0-6.8-3.1-6.8-6.8v-40.5c-0.4-7.8,4.7-14.4,9.2-20.1c3-3.8,6.3-7.8,6.4-11
	c0.1-3.1-3.1-7.4-6.4-11.5c-4.1-5.4-8.8-11.4-9.2-18.8c-0.6-8.3,4.6-15.2,9.1-21.2c3.1-4.1,6.4-8.5,6.5-11.8
	c0.3-5.5-8.3-18.4-14.1-25.3c-2.4-2.8-2-7.3,0.9-9.7s7.3-2.1,9.7,0.9c3,3.6,17.9,21.9,17.2,34.7c-0.4,7.5-5.1,13.8-9.2,19.3
	c-3.3,4.4-6.7,9-6.4,12.2c0.1,3.1,3.4,7.3,6.4,11.2c4.6,5.8,9.7,12.5,9.2,20.8c-0.4,7.4-5.1,13.4-9.4,18.6c-3.1,4-6.4,8.1-6.3,11.2
	v41C256.5,240.6,253.4,243.6,249.5,243.6z"/>
<path d="M331.3,242.7L331.3,242.7c-3.8,0-6.8-3.1-6.8-6.8v-40.7c-0.4-7.8,4.7-14.4,9.2-20.1c3-3.8,6.3-7.8,6.4-11s-3.1-7.4-6.4-11.5
	c-4.1-5.4-8.8-11.4-9.2-18.8c-0.6-8.3,4.6-15.2,9.1-21.2c3.1-4.1,6.4-8.5,6.5-11.8c0.3-5.5-8.3-18.4-14.1-25.3
	c-2.4-2.8-2-7.3,0.9-9.7c2.8-2.4,7.3-2.1,9.7,0.9c3,3.6,17.9,21.9,17.2,34.7c-0.4,7.4-5.1,13.8-9.2,19.3c-3.3,4.4-6.7,9-6.4,12.2
	c0.1,3.1,3.4,7.3,6.4,11.2c4.6,5.8,9.7,12.5,9.2,20.8c-0.4,7.4-5.1,13.4-9.4,18.6c-3.1,4-6.5,8.1-6.3,11.2v41
	C338.3,239.6,335.2,242.7,331.3,242.7z"/>
<path d="M415,242.7L415,242.7c-3.8,0-6.8-3.1-6.8-6.8v-40.7c-0.4-7.8,4.7-14.4,9.2-20.1c3-3.8,6.3-7.8,6.4-11s-3.1-7.4-6.4-11.5
	c-4.1-5.4-8.8-11.4-9.2-18.8c-0.6-8.3,4.6-15.2,9.1-21.2c3.1-4.1,6.4-8.5,6.5-11.8c0.3-5.5-8.3-18.4-14.1-25.3
	c-2.4-2.8-2-7.3,0.9-9.7c2.8-2.4,7.3-2.1,9.7,0.9c3,3.6,17.9,21.9,17.2,34.7c-0.4,7.4-5.1,13.8-9.2,19.3c-3.3,4.4-6.7,9-6.4,12.2
	c0.1,3.1,3.4,7.3,6.4,11.2c4.6,5.8,9.7,12.5,9.2,20.8c-0.4,7.4-5.1,13.4-9.4,18.6c-3.1,4-6.5,8.1-6.3,11.2v41
	C421.8,239.6,418.7,242.7,415,242.7z"/>
<path d="M497.2,243.6L497.2,243.6c-3.8,0-6.8-3.1-6.8-6.8v-40.5c-0.4-7.8,4.7-14.4,9.2-20.1c3-3.8,6.3-7.8,6.4-11s-3.1-7.4-6.4-11.5
	c-4.1-5.4-8.8-11.4-9.2-18.8c-0.6-8.3,4.6-15.2,9.1-21.2c3.1-4.1,6.4-8.5,6.5-11.8c0.3-5.5-8.3-18.4-14.1-25.2
	c-2.4-2.8-2-7.3,0.9-9.7s7.3-2.1,9.7,0.9c3,3.6,17.9,21.9,17.2,34.7c-0.4,7.5-5.1,13.8-9.2,19.3c-3.3,4.4-6.7,9-6.4,12.2
	c0.1,3.1,3.4,7.3,6.4,11.2c4.6,5.8,9.7,12.5,9.2,20.8c-0.4,7.4-5.1,13.4-9.4,18.6c-3.1,4-6.5,8.1-6.3,11.2v41
	C504,240.6,500.9,243.6,497.2,243.6z"/>
<path d="M578.7,243.6L578.7,243.6c-3.8,0-6.8-3.1-6.8-6.8v-40.5c-0.4-7.8,4.7-14.4,9.2-20.1c3-3.8,6.3-7.8,6.4-11s-3.1-7.4-6.4-11.5
	c-4.1-5.4-8.8-11.4-9.2-18.8c-0.6-8.3,4.6-15.2,9.1-21.2c3.1-4.1,6.4-8.5,6.5-11.8c0.3-5.5-8.3-18.4-14.1-25.2
	c-2.4-2.8-2-7.3,0.9-9.7s7.3-2.1,9.7,0.9c3,3.6,17.9,21.9,17.2,34.7c-0.4,7.5-5.1,13.8-9.2,19.3c-3.3,4.4-6.7,9-6.4,12.2
	c0.1,3.1,3.4,7.3,6.4,11.2c4.6,5.8,9.7,12.5,9.2,20.8c-0.4,7.4-5.1,13.4-9.4,18.6c-3.1,4-6.5,8.1-6.3,11.2v41
	C585.5,240.6,582.4,243.6,578.7,243.6z"/>
<g>
	<path d="M641.9,725.7c-0.1,0-0.4,0.1-0.6,0.1c-1.7-5.8-7-10.2-13.4-10.2h-15.8V367.5h15.8c6.4,0,11.8-4.4,13.4-10.2
		c0.1,0,0.4,0.1,0.6,0.1h9.4c5,0,9.1-4.1,9.1-9.1v-25.2c0-5-4.1-9.1-9.1-9.1h-9.4c-0.1,0-0.4,0.1-0.6,0.1c-1.7-5.8-7-10.2-13.4-10.2
		h-15.8v-1.7c0-12.2-3.7-24.5-11.8-24.5c-1.4,0-2.7-1.4-2.7-3c0-7-8.1-12.2-19.1-12.2c-10.8,0-19.1,5.3-19.1,12.2c0,1.7-1.3,3-2.7,3
		c-8.1,0-11.8,12.4-11.8,24.5v1.7h-14.5v-1.7c0-12.2-3.7-24.5-11.8-24.5c-1.4,0-2.7-1.4-2.7-3c0-7-8.3-12.2-19.1-12.2
		c-10.8,0-19.1,5.3-19.1,12.2c0,1.7-1.3,3-2.7,3c-8.1,0-11.8,12.4-11.8,24.5v1.7h-15.2v-1.7c0-12.2-3.7-24.5-11.8-24.5
		c-1.4,0-2.7-1.4-2.7-3c0-7-8.3-12.2-19.1-12.2c-10.8,0-19.1,5.3-19.1,12.2c0,1.7-1.3,3-2.7,3c-8.1,0-11.8,12.4-11.8,24.5v1.7h-16.5
		c-0.3-11.8-3.8-23.2-11.8-23.2c-1.4,0-2.7-1.4-2.7-3c0-7-8.1-12.2-19.1-12.2c-10.8,0-19.1,5.3-19.1,12.2c0,1.7-1.3,3-2.7,3
		c-7.8,0-11.5,11.5-11.8,23.2h-14.2v-1.7c0-12.2-3.7-24.5-11.8-24.5c-1.4,0-2.7-1.4-2.7-3c0-7-8.3-12.2-19.1-12.2
		c-10.8,0-19.1,5.3-19.1,12.2c0,1.7-1.3,3-2.7,3c-8.1,0-11.8,12.4-11.8,24.5v1.7h-13.7v-1.7c0-12.2-3.7-24.5-11.8-24.5
		c-1.4,0-2.7-1.4-2.7-3c0-7-8.3-12.2-19.1-12.2c-10.8,0-19.1,5.3-19.1,12.2c0,1.7-1.3,3-2.7,3c-8.1,0-11.8,12.4-11.8,24.5v1.7h-11.9
		c-6.3,0-11.4,4.1-13.2,9.7c-0.3,0-0.4-0.1-0.7-0.1h-9.4c-5,0-9.1,4.1-9.1,9.1v25.2c0,5,4.1,9.1,9.1,9.1h9.4c0.1,0,0.3,0,0.4,0
		c1.4,6.1,7,10.8,13.7,10.8h11.9v348.1h-11.4c-6.3,0-11.4,4.1-13.2,9.7c-0.3,0-0.4-0.1-0.7-0.1h-9.4c-5,0-9.1,4.1-9.1,9.1v25.2
		c0,5,4.1,9.1,9.1,9.1h9.4c0.1,0,0.3,0,0.4-0.1c1.4,6.1,7,10.8,13.7,10.8h11.4v7.1c0,12.2,3.7,24.5,11.8,24.5c1.4,0,2.7,1.4,2.7,3
		c0,7,8.1,12.2,19.1,12.2c10.8,0,19.1-5.3,19.1-12.2c0-1.7,1.3-3,2.7-3c8.1,0,11.8-12.4,11.8-24.5v-7.1h13.7v7.1
		c0,12.2,3.7,24.5,11.8,24.5c1.4,0,2.7,1.4,2.7,3c0,7,8.3,12.2,19.1,12.2c10.8,0,19.1-5.3,19.1-12.2c0-1.7,1.3-3,2.7-3
		c8.1,0,11.8-12.4,11.8-24.5v-7.1h14.8v10.1c0,12.2,3.7,24.5,11.8,24.5c1.4,0,2.7,1.4,2.7,3c0,7,8.1,12.2,19.1,12.2
		c10.8,0,19.1-5.3,19.1-12.2c0-1.7,1.3-3,2.7-3c8.1,0,11.8-12.4,11.8-24.5v-10.1h16.5v7.1c0,12.2,3.7,24.5,11.8,24.5
		c1.4,0,2.7,1.4,2.7,3c0,7,8.3,12.2,19.1,12.2c10.8,0,19.1-5.3,19.1-12.2c0-1.7,1.3-3,2.7-3c8.1,0,11.8-12.4,11.8-24.5v-7.1h15.2
		v7.1c0,12.2,3.7,24.5,11.8,24.5c1.4,0,2.7,1.4,2.7,3c0,7,8.1,12.2,19.1,12.2c10.8,0,19.1-5.3,19.1-12.2c0-1.7,1.3-3,2.7-3
		c8.1,0,11.8-12.4,11.8-24.5v-7.1h14.5v7.1c0,12.2,3.7,24.5,11.8,24.5c1.4,0,2.7,1.4,2.7,3c0,7,8.3,12.2,19.1,12.2
		c10.8,0,19.1-5.3,19.1-12.2c0-1.7,1.3-3,2.7-3c8.1,0,11.8-12.4,11.8-24.5v-7.1h15.8c6.4,0,11.8-4.4,13.4-10.2
		c0.1,0,0.4,0.1,0.6,0.1 M641.9,323.1h9.4v25.2h-9.4V323.1z M612.3,313h15.8c2.7,0,4.8,2.1,4.8,4.8v5.3v25.2v5.3
		c0,2.7-2.1,4.8-4.8,4.8h-15.8V313z M109.4,347.7H100v-25.2h9.4V347.7z M109.8,759.4h-9.4v-25.2h9.4V759.4z M135.3,770.2h-11.4
		c-2.7,0-4.8-2.1-4.8-4.8v-5.8v-25.2v-4.7c0-2.7,2.1-4.8,4.8-4.8h11.4V770.2z M135.3,358.4h-11.9c-2.7,0-4.8-2.1-4.8-4.8v-5.8v-25.2
		v-4.7c0-2.7,2.1-4.8,4.8-4.8h11.9V358.4z M193.2,303.9v9.1v45.4v9.1v348.1v9.1v10.1V760v10.1v9.1v7.1c0,9-2.3,14.7-2.7,15.4
		c-6.5,0-11.8,5.4-11.8,12.1c-0.3,0.9-3.8,3.1-10,3.1s-9.5-2.3-10-3c0-6.5-5.1-11.9-10.7-11.9c-0.1,0-0.3,0-0.3,0
		c-1.1-0.9-3.6-6.5-3.6-15.6v-7.1v-9.1V760v-25.2v-10v-9.1V367.5v-9.1V313v-9.1v-1.7c0-9.1,2.3-14.7,2.7-15.4
		c6.5,0,11.8-5.4,11.8-12.1c0.3-0.9,3.8-3.1,10-3.1c6,0,9.5,2.3,10,3c0,6.7,5.4,12.2,11,11.9c1.1,0.9,3.6,6.5,3.6,15.6V303.9z
		 M216.1,770.2h-13.7v-45.4h13.7V770.2z M216.1,715.6h-13.7V367.5h13.7V715.6z M216.1,358.4h-13.7V313h13.7V358.4z M274,302v1.7v9.1
		v45.4v9.1v12.2v312v23.9v9.1v10.1v24.5v10.7v9.1v7.1c0,9-2.3,14.7-2.7,15.4c-6.5,0-11.8,5.4-11.8,12.1c-0.3,0.9-3.8,3.1-10,3.1
		c-6,0-9.5-2.3-10-3c0-6.5-5.1-11.9-10.7-11.9c-0.1,0-0.3,0-0.3,0c-1.1-0.9-3.6-6.5-3.6-15.6v-7.1v-9.1v-10.7v-24.5v-9.8v-9.1v-23.9
		v-312v-12.2v-9.1v-45.4V304v-1.7v-6.1h0.4c0.7-5.4,2-8.8,2.3-9.2c6.5,0,11.8-5.4,11.8-12.1c0.3-0.9,3.8-3.1,10-3.1
		c6,0,9.5,2.3,10,3c0,6.7,5.3,12.2,11,11.9c0.9,0.7,2.4,4,3.1,9.5h0.4V302L274,302z M297.9,770.2h-14.8v-45.4h14.8V770.2z
		 M297.9,715.6h-14.8V367.5h14.8V715.6z M297.9,358.4h-14.8V313h14.8V358.4z M355.8,313v45.4v9.1v348.1v9.1v9.5v25.2v10.7v9.1v10.1
		c0,9-2.3,14.7-2.7,15.4c-6.5,0-11.8,5.4-11.8,12.1c-0.3,0.9-3.8,3.1-10,3.1c-6,0-9.7-2.3-10-3c0-6.5-5.1-11.9-10.7-11.9
		c-0.1,0-0.3,0-0.3,0c-1.1-0.9-3.6-6.5-3.6-15.6v-10.1v-9.1v-10.7v-25.2v-9.4v-9.1V367.5v-9.1V313l0.4-13.9c0.7-5.4,2-8.8,2.1-9.2
		c6.5,0,11.8-5.4,11.8-12.1c0.3-0.9,3.8-3.1,10-3.1c6,0,9.5,2.3,10,3c0,6.7,5.4,12.4,11,11.9c0.9,0.7,3.6,9.5,3.6,9.5L355.8,313
		L355.8,313z M381.4,770.2h-16.5v-45.4h16.5V770.2z M381.4,715.6h-16.5V367.5h16.5V715.6z M381.4,358.4h-16.5V313h16.5V358.4z
		 M439.3,303.9v9.1v45.4v9.1v4.8v337.2v6.1v9.1v45.4v9.1v5.3v1.7c0,9-2.3,14.7-2.7,15.4c-6.5,0-11.8,5.4-11.8,12.1
		c-0.3,0.9-3.8,3.1-10,3.1c-6,0-9.5-2.3-10-3c0-6.5-5.1-11.9-10.7-11.9c-0.1,0-0.3,0-0.3,0c-1.1-0.9-3.6-6.5-3.6-15.6v-1.6v-5.3
		v-9.1v-45.4v-9.1v-6.1V372.4v-4.8v-9.1v-45.4V304v-1.7c0-9.1,2.3-14.7,2.7-15.4c6.5,0,11.8-5.4,11.8-12.1c0.3-0.9,3.8-3.1,10-3.1
		c6,0,9.7,2.3,10,3c0,6.7,5.7,12.2,11,11.9c1.1,0.9,3.6,6.5,3.6,15.6V303.9z M463.6,770.2h-15.2v-45.4h15.2V770.2z M463.6,715.6
		h-15.2V367.5h15.2V715.6z M463.6,358.4h-15.2V313h15.2V358.4z M521.5,303.9v9.1v45.4v9.1v5.4v338.6v4v9.1v45.4v9.1v5.3v1.7
		c0,9-2.3,14.7-2.7,15.4c-6.5,0-11.8,5.4-11.8,12.1c-0.3,0.9-3.8,3.1-10,3.1c-6.1,0-9.5-2.3-10-3c0-6.5-5.1-11.9-10.7-11.9
		c-0.1,0-0.3,0-0.3,0c-1.1-0.9-3.6-6.5-3.6-15.6v-1.4v-5.3v-9.1v-45.4v-9.1v-4V373.2v-5.4v-9.1v-45.4v-9.1v-1.7
		c0-9.1,2.3-14.7,2.7-15.4c6.5,0,11.8-5.4,11.8-12.1c0.3-0.9,3.8-3.1,10-3.1c6,0,9.5,2.3,10,3c0,6.7,5.3,12.1,11,11.9
		c1.1,0.9,3.6,6.5,3.6,15.6V303.9z M545.1,770.2h-14.5v-45.4h14.5V770.2z M545.1,715.6h-14.5V367.5h14.5V715.6z M545.1,358.4h-14.5
		V313h14.5V358.4z M603,303.9v9.1v45.4v9.1v13.1v330.6v4.4v9.1v45.4v9.1v7.1c0,9-2.3,14.7-2.7,15.4c-6.5,0-11.8,5.4-11.8,12.1
		c-0.3,0.9-3.8,3.1-10,3.1c-6.1,0-9.5-2.3-10-3c0-6.5-5.1-11.9-10.7-11.9c-0.1,0-0.3,0-0.3,0c-1.1-0.9-3.6-6.5-3.6-15.6v-7.1v-9.1
		v-45.2v-9.1v-4.4V380.5v-13.1v-9.1V313v-9.1v-1.7c0-9.1,2.3-14.7,2.7-15.4c6.5,0,11.8-5.4,11.8-12.1c0.3-0.9,3.8-3.1,10-3.1
		c6.1,0,9.7,2.3,10,3c0,6.5,5.1,11.9,10.7,11.9c0.1,0,0.3,0,0.3,0c1.1,0.9,3.6,6.5,3.6,15.6V303.9L603,303.9z M632.8,734.9v25.2v5.3
		c0,2.7-2.1,4.8-4.8,4.8h-15.8v-45.4h15.8c2.7,0,4.8,2.1,4.8,4.8V734.9z"/>
	<path d="M274,302v-6.1h-0.4C273.8,297.8,274,299.9,274,302z"/>
	<path d="M225.2,296v6.1c0-2.3,0.1-4.3,0.4-6.1H225.2z"/>
</g>
</svg>
