<?xml version="1.0" encoding="utf-8"?>
<!-- Generator: Adobe Illustrator 18.0.0, SVG Export Plug-In . SVG Version: 6.00 Build 0)  -->
<!DOCTYPE svg PUBLIC "-//W3C//DTD SVG 1.1//EN" "http://www.w3.org/Graphics/SVG/1.1/DTD/svg11.dtd">
<svg version="1.1" id="Layer_1" xmlns="http://www.w3.org/2000/svg" xmlns:xlink="http://www.w3.org/1999/xlink" x="0px" y="0px"
	 viewBox="0 -0.1 13 13" enable-background="new 0 -0.1 13 13" xml:space="preserve">
<g>
	<g>
		<path d="M12.7,11.2L10,8.6c0.6-0.9,1-2,1-3.1c0-3-2.5-5.5-5.5-5.5S0,2.4,0,5.4s2.5,5.5,5.5,5.5c1.1,0,2.2-0.3,3.1-1l2.7,2.7
			c0.2,0.2,0.4,0.3,0.7,0.3c0.5,0,1-0.5,1-1C13,11.7,12.9,11.4,12.7,11.2z M5.5,8.9C3.6,8.9,2,7.4,2,5.4s1.6-3.5,3.5-3.5
			S9,3.5,9,5.4S7.4,8.9,5.5,8.9z"/>
	</g>
</g>
</svg>
