<svg 
 xmlns="http://www.w3.org/2000/svg"
 xmlns:xlink="http://www.w3.org/1999/xlink"
 width="30px" height="30px">
<path fill-rule="evenodd"  fill="rgb(55, 64, 82)"
 d="M20.608,1.632 C24.895,1.632 28.370,5.106 28.370,9.390 C28.370,13.676 24.895,17.149 20.608,17.149 C16.322,17.149 12.847,13.676 12.847,9.390 C12.847,5.106 16.322,1.632 20.608,1.632 ZM20.608,-0.002 C15.420,-0.002 11.213,4.203 11.213,9.390 C11.213,11.492 11.911,13.416 13.077,14.980 C13.077,14.980 0.593,26.491 0.593,26.491 C-0.205,27.287 -0.205,28.603 0.593,29.400 C1.390,30.197 2.680,30.197 3.477,29.400 C3.477,29.400 14.992,16.920 14.992,16.920 C16.558,18.088 18.503,18.783 20.608,18.783 C25.797,18.783 30.003,14.577 30.003,9.390 C30.003,4.203 25.797,-0.002 20.608,-0.002 Z"/>
</svg>