<svg xmlns="http://www.w3.org/2000/svg" xmlns:xlink="http://www.w3.org/1999/xlink" version="1.1" x="0px" y="0px" width="100px" height="100px" viewBox="0 0 100 100" enable-background="new 0 0 100 100" xml:space="preserve">
<g id="Layer_1" display="none">
	<g display="inline">
		<g>
			<path fill="#000000" stroke="#231F20" stroke-linecap="round" stroke-linejoin="round" stroke-miterlimit="10" d="M366.426,271.742"/>
		</g>
	</g>
	<g display="inline">
		<path fill="#000000" stroke="#231F20" stroke-width="14" stroke-linecap="round" stroke-linejoin="round" stroke-miterlimit="10" d="    M837.102,262.3"/>
	</g>
	<g display="inline">
		<path fill="#000000" stroke="#231F20" stroke-width="14" stroke-linecap="round" stroke-linejoin="round" stroke-miterlimit="10" d="    M240.435,460.539"/>
	</g>
</g>
<g id="Layer_2">
	<path fill="#000000" d="M80.82,59.993l1.15-1.153l-1.367-1.366l-9.688,9.69l-4.377-4.377c-0.571-0.573-1.341-0.826-2.088-0.767   c-0.071-0.117-0.155-0.226-0.256-0.326L27.292,24.792c0.859-1.182,1.86-3.088,1.971-5.646c0.179-4.121-1.971-8.451-6.39-12.871   c-0.483-0.482-1.267-0.482-1.751,0c-0.238,0.238-0.358,0.55-0.361,0.863L7.137,20.761c-0.313,0.003-0.625,0.121-0.863,0.36   c-0.483,0.483-0.483,1.269,0,1.751c4.25,4.25,8.417,6.402,12.393,6.402c0.159,0,0.319-0.005,0.478-0.012   c2.557-0.111,4.463-1.112,5.646-1.971l36.902,36.902c0.102,0.102,0.212,0.185,0.327,0.257c-0.06,0.745,0.196,1.517,0.767,2.085   l4.377,4.377l-9.69,9.689l1.366,1.368l1.152-1.151c18.35,17.921,33.324,12.496,33.324,12.496S98.741,78.341,80.82,59.993z    M19.038,26.79c-2.41,0.106-4.975-0.825-7.659-2.771l12.642-12.64c1.931,2.664,2.861,5.212,2.771,7.609   c-0.126,3.361-2.247,5.229-2.345,5.315c-0.01,0.008-0.018,0.016-0.026,0.024c-0.018,0.015-0.034,0.03-0.05,0.046   c-0.016,0.018-0.031,0.033-0.045,0.05c-0.008,0.009-0.017,0.019-0.025,0.027C24.28,24.474,22.422,26.644,19.038,26.79z"/>
</g>
</svg>