<?xml version="1.0" encoding="utf-8"?>
<!-- Generator: Adobe Illustrator 18.0.0, SVG Export Plug-In . SVG Version: 6.00 Build 0)  -->
<!DOCTYPE svg PUBLIC "-//W3C//DTD SVG 1.1//EN" "http://www.w3.org/Graphics/SVG/1.1/DTD/svg11.dtd">
<svg version="1.1" id="Layer_1" xmlns="http://www.w3.org/2000/svg" xmlns:xlink="http://www.w3.org/1999/xlink" x="0px" y="0px"
	 viewBox="0 0 30 30.1" enable-background="new 0 0 30 30.1" xml:space="preserve">
<path fill="#374052" d="M15,30.1c-8.3,0-15-6.8-15-15.1C0,6.8,6.7,0,15,0s15,6.8,15,15.1C30,23.4,23.3,30.1,15,30.1z M15,2.1
	C7.9,2.1,2.1,7.9,2.1,15.1C2.1,22.2,7.9,28,15,28s12.9-5.8,12.9-12.9C27.9,7.9,22.1,2.1,15,2.1z M26.9,14.7c-0.2,0-0.8,0.2-0.8,0.4
	c0,0.2,0.6,0.4,0.8,0.4c0,0,0.1,0,0.1,0c0,1-0.2,2-0.5,2.9c0,0,0,0-0.1,0c-0.2-0.1-0.9-0.1-0.9,0.2c-0.1,0.2,0.4,0.6,0.7,0.7
	c0,0,0,0,0,0c-0.3,0.9-0.8,1.8-1.3,2.6c0,0,0,0,0,0c-0.2-0.1-0.8-0.3-0.9-0.1c-0.1,0.2,0.2,0.7,0.4,0.9c0,0,0,0,0,0
	c-0.2,0.2-0.4,0.5-0.6,0.7H6.2C6,23,5.8,22.8,5.6,22.6c0,0,0,0,0,0c0.2-0.1,0.6-0.7,0.4-0.9c-0.1-0.2-0.7,0-0.9,0.1c0,0,0,0,0,0
	c-0.5-0.8-1-1.7-1.3-2.6c0,0,0,0,0,0c0.2-0.1,0.7-0.5,0.7-0.7c-0.1-0.2-0.7-0.2-0.9-0.2c0,0,0,0-0.1,0C3.2,17.6,3,16.6,3,15.6
	c0,0,0.1,0,0.1,0c0.2,0,0.8-0.2,0.8-0.4c0-0.2-0.6-0.4-0.8-0.4c0,0-0.1,0-0.1,0c0-1,0.2-2,0.4-2.9c0,0,0.1,0,0.1,0.1
	c0.2,0.1,0.9,0.1,0.9-0.2C4.5,11.5,4,11.1,3.8,11c0,0-0.1,0-0.1,0C4,10.1,4.4,9.2,5,8.4c0,0,0.1,0.1,0.1,0.1C5.3,8.6,5.9,8.8,6,8.6
	c0.1-0.2-0.2-0.7-0.4-0.8c0,0-0.1,0-0.1-0.1c0.6-0.8,1.3-1.5,2.1-2.1c0,0.1,0,0.1,0.1,0.2c0.1,0.2,0.7,0.6,0.8,0.4
	c0.2-0.1,0-0.7-0.1-0.9c0,0-0.1-0.1-0.1-0.1c0.8-0.6,1.7-1,2.7-1.4c0,0.1,0,0.1,0,0.2c0.1,0.2,0.5,0.7,0.7,0.7
	c0.2-0.1,0.2-0.7,0.2-0.9c0-0.1-0.1-0.1-0.1-0.2c0.9-0.3,1.9-0.4,3-0.5c0,0.1,0,0.1,0,0.2C14.6,3.4,14.8,4,15,4
	c0.2,0,0.4-0.6,0.4-0.8c0-0.1,0-0.1,0-0.2c1,0,2,0.2,3,0.5c0,0-0.1,0.1-0.1,0.2c-0.1,0.2-0.1,0.9,0.2,0.9c0.2,0.1,0.6-0.4,0.7-0.7
	c0-0.1,0-0.1,0-0.2c1,0.4,1.8,0.8,2.7,1.4c0,0-0.1,0.1-0.1,0.1c-0.1,0.2-0.3,0.8-0.1,0.9c0.2,0.1,0.7-0.2,0.8-0.4
	c0,0,0.1-0.1,0.1-0.2c0.8,0.6,1.5,1.3,2.1,2.1c0,0-0.1,0-0.1,0.1c-0.2,0.1-0.6,0.7-0.4,0.8c0.1,0.2,0.7,0,0.9-0.1
	c0,0,0.1-0.1,0.1-0.1c0.5,0.8,1,1.7,1.3,2.7c0,0-0.1,0-0.1,0c-0.2,0.1-0.7,0.5-0.7,0.7c0.1,0.2,0.7,0.2,0.9,0.2c0,0,0.1,0,0.1-0.1
	C26.9,12.8,27,13.7,26.9,14.7C27,14.7,27,14.7,26.9,14.7z M15,5.6c-5.2,0-9.4,4.2-9.4,9.4c0,2.1,0.7,4.1,1.9,5.7l0.3-0.2
	c-1.2-1.6-1.8-3.5-1.8-5.5c0-5,4.1-9.1,9.1-9.1c2,0,3.9,0.7,5.4,1.8l0.2-0.2C19,6.3,17.1,5.6,15,5.6z M21.6,7.5c0-0.1,0-0.1,0-0.1
	c0,0,0,0-0.1,0c0,0,0,0,0,0c0,0,0,0,0,0c0,0,0,0-0.1,0l0,0l-6.2,6.5c-0.1,0-0.1,0-0.2,0c0,0,0,0,0,0c0,0,0,0,0,0c-0.1,0-0.2,0-0.2,0
	c0,0,0,0,0,0c-0.1,0-0.2,0-0.2,0.1c0,0,0,0,0,0c-0.1,0-0.1,0.1-0.2,0.1c0,0,0,0,0,0c-0.1,0-0.1,0.1-0.2,0.2
	c-0.2,0.3-0.3,0.7-0.3,1.1l-2,2.1l0,0c0,0,0.1,0.4,0.5,0.8c0.1,0,0.1,0.1,0.2,0.1c0,0,0,0,0.1,0c0,0,0.1,0,0.1,0.1c0,0,0,0,0.1,0
	c0,0,0.1,0,0.1,0c0,0,0,0,0,0c0,0,0.1,0,0.1,0c0,0,0,0,0,0c0,0,0,0,0.1,0c0,0,0,0,0,0c0,0,0,0,0.1,0c0,0,0,0,0,0c0,0,0,0,0.1,0
	c0,0,0,0,0,0c0,0,0,0,0,0l0,0l1.8-2.4c0,0,0,0,0.1,0c0,0,0.1,0,0.1,0c0,0,0.1,0,0.1,0c0.1,0,0.1,0,0.2,0c0,0,0.1,0,0.1,0
	c0.1,0,0.1-0.1,0.2-0.1c0,0,0.1,0,0.1,0c0.1-0.1,0.1-0.1,0.2-0.2c0.3-0.3,0.4-0.8,0.2-1.2L21.6,7.5L21.6,7.5L21.6,7.5z M21.5,8.3
	l-0.2,0.3c1.7,1.7,2.7,4,2.7,6.5c0,2-0.6,3.9-1.9,5.6l0.3,0.2c1.3-1.7,1.9-3.7,1.9-5.8C24.4,12.4,23.3,10,21.5,8.3z M15.1,15.8
	c-0.4,0-0.8-0.3-0.8-0.7c0-0.2,0-0.4,0.2-0.5c0.1-0.2,0.3-0.3,0.5-0.3c0,0,0.1,0,0.1,0c0.4,0,0.7,0.3,0.7,0.7
	C15.8,15.4,15.5,15.8,15.1,15.8z M10,24.9c0.1,0,0.2,0.1,0.2,0.2c0,0.1-0.1,0.2-0.2,0.2c-0.1,0-0.2-0.1-0.2-0.2
	C9.8,25,9.9,24.9,10,24.9z M11.7,24h6.7c0.6,0,1.1,0.5,1.1,1.1c0,0.6-0.5,1.1-1.1,1.1h-6.7c-0.6,0-1.1-0.5-1.1-1.1
	C10.5,24.5,11,24,11.7,24z M20,24.9c0.1,0,0.2,0.1,0.2,0.2c0,0.1-0.1,0.2-0.2,0.2c-0.1,0-0.2-0.1-0.2-0.2C19.8,25,19.9,24.9,20,24.9
	z"/>
</svg>
