<?xml version="1.0" encoding="utf-8"?>
<!-- Generator: Adobe Illustrator 18.0.0, SVG Export Plug-In . SVG Version: 6.00 Build 0)  -->
<!DOCTYPE svg PUBLIC "-//W3C//DTD SVG 1.1//EN" "http://www.w3.org/Graphics/SVG/1.1/DTD/svg11.dtd">
<svg version="1.1" id="Layer_1" xmlns="http://www.w3.org/2000/svg" xmlns:xlink="http://www.w3.org/1999/xlink" x="0px" y="0px"
	 viewBox="0 49.2 595.3 746" enable-background="new 0 49.2 595.3 746" xml:space="preserve">
<g>
	<g>
		<path fill="#374052" d="M539.5,49.2H55.3C25.7,49.2,1,73.9,1,103.5v350.7l49.4-29.6l7.4-103.7c4.9-42,42-79,86.5-79h306.3
			c44.5,0,81.5,34.6,86.5,79l7.4,106.2l49.4,29.6V103.5C593.8,73.9,569.1,49.2,539.5,49.2z M509.8,325.8
			c-2.5-32.1-27.2-56.8-59.3-56.8H144.3c-29.6,0-56.8,24.7-59.3,56.8l-7.4,113.6L1,486.4v195.1h32.1v64.2
			c0,27.2,22.2,49.4,49.4,49.4c27.2,0,49.4-22.2,49.4-49.4v-64.2h328.5v64.2c0,27.2,22.2,49.4,49.4,49.4s49.4-22.2,49.4-49.4v-64.2
			h34.6V486.4l-76.6-46.9L509.8,325.8z M82.5,595.1c-22.2,0-42-17.3-42-42c0-22.2,19.8-42,42-42c22.2,0,42,19.8,42,42
			C124.5,577.8,104.7,595.1,82.5,595.1z M433.3,614.8L433.3,614.8l-271.7,0V511.1c0-12.4,7.4-19.8,17.3-19.8h234.7
			c12.4,0,19.8,9.9,19.8,19.8V614.8z M104.7,439.5l7.4-111.2c2.5-17.3,14.8-29.6,32.1-29.6h306.3c17.3,0,29.6,12.4,32.1,29.6
			l7.4,111.2H104.7z M554.3,553.1c0,24.7-19.8,42-42,42c-22.2,0-42-19.8-42-42s17.3-42,42-42C537,511.1,554.3,530.9,554.3,553.1z"/>
	</g>
</g>
</svg>
