<?xml version="1.0" encoding="utf-8"?>
<!-- Generator: Adobe Illustrator 18.1.1, SVG Export Plug-In . SVG Version: 6.00 Build 0)  -->
<svg version="1.1" id="Layer_1" xmlns="http://www.w3.org/2000/svg" xmlns:xlink="http://www.w3.org/1999/xlink" x="0px" y="0px"
	 viewBox="146.1 156.7 323.5 477.4" enable-background="new 146.1 156.7 323.5 477.4" xml:space="preserve">
<path d="M467.6,452.3c-4.9-27.5-15.3-53.2-26.3-77.1c-32.4-72.2-74.7-140.8-110.8-198.3l-4.9-8c-5.5-8-11-12.2-17.7-12.2
	c-9.8,0-16.5,10.4-17.7,12.9l0,0l-8.6,14.1c-15.3,24.5-31.2,49.6-45.9,74.7c-23.9,39.8-53.2,93-75.3,150.6
	c-6.7,18.4-13.5,36.7-14.1,56.3c-1.8,51.4,16.5,94.2,55.1,128.5c30,26.3,67.9,40.4,107.1,40.4l0,0c56.9,0,108.9-29.4,138.9-78.3
	C466.3,522.1,473.7,487.8,467.6,452.3z M440,551.4c-28.2,47.1-77.7,74.7-132.2,74.7l0,0c-37.3,0-73.4-13.5-102.2-38.6
	c-36.7-32.4-54.5-73.4-52.6-122.4c0.6-18.4,6.7-34.9,13.5-53.9c21.4-56.9,50.8-109.5,74.7-149.3c14.7-25.1,30.6-50.2,45.9-74.7
	l8.6-13.5c0,0,0,0,0-0.6c1.2-2.4,6.1-9.2,11.6-9.2c4.3,0,8.6,4.9,11,8.6l4.9,8c36.1,57.5,77.7,125.5,110.2,197.7
	c10.4,23.3,21.4,48.3,25.7,75.3C465.7,487.2,459,520.2,440,551.4z M311.5,560.6c0,1.8-1.8,3.7-3.7,3.7c-51.4,0-92.4-41.6-92.4-92.4
	c0-1.8,1.8-3.7,3.7-3.7s3.7,1.8,3.7,3.7c0,47.1,37.9,85.1,85.1,85.1C309.7,557,311.5,558.8,311.5,560.6z"/>
</svg>
