<?xml version="1.0" encoding="utf-8"?>
<!-- Generator: Adobe Illustrator 18.1.1, SVG Export Plug-In . SVG Version: 6.00 Build 0)  -->
<svg version="1.1" id="Layer_1" xmlns="http://www.w3.org/2000/svg" xmlns:xlink="http://www.w3.org/1999/xlink" x="0px" y="0px"
	 viewBox="34.4 39.9 540.9 525" enable-background="new 34.4 39.9 540.9 525" xml:space="preserve">
<path d="M364.4,197.3c-38.2,46.7-17.1,65.9-3.4,78.1C402.8,227.6,378.1,208.2,364.4,197.3L364.4,197.3z M480.7,290.2
	c-43.8,53.5-67,32.3-80.1,20.7C444,261.3,466.4,278.8,480.7,290.2L480.7,290.2z M408,138.9c-35.1,49.2-12.8,67,1.7,78.3
	C448.2,166.6,422.4,148.9,408,138.9L408,138.9z M530.2,224c-40.2,56.4-64.8,36.8-78.6,26C491.6,197.6,515.1,213.5,530.2,224
	L530.2,224z M447.7,77.6c-31.8,51.6-8.4,67.9,6.8,78.2C489.7,102.6,462.7,86.6,447.7,77.6z M575.3,154.4
	c-36.5,59.1-62.4,41.2-76.8,31.3C535,130.6,559.6,144.9,575.3,154.4L575.3,154.4z M544,39.9c-52.1,35.6-38.2,60.7-29.9,77.7
	C568.9,83.6,553.4,55,544,39.9z M34.4,548.8c165.9-84.5,308.3-207.1,416.2-356.8c0.5,0.3,40.1-58.1,58.3-54.7
	c-2,1.1-22.8,38.8-59.8,87.2c-36.6,48.7-89.4,108.2-147.8,161c-58.1,53.2-121.7,99.7-172.5,130.9c-50.5,31.5-88,47.7-86.3,48.3
	C39.8,559.5,37.1,554.2,34.4,548.8L34.4,548.8z M317.2,252.5c-41.2,44-21.4,64.6-8.6,77.7C353.4,285.3,330.1,264.3,317.2,252.5
	L317.2,252.5z M427.1,353c-47.2,50.4-69,27.8-81.2,15.3C392.3,321.7,413.6,340.6,427.1,353z"/>
</svg>
