<?xml version="1.0" encoding="utf-8"?>
<!-- Generator: Adobe Illustrator 18.0.0, SVG Export Plug-In . SVG Version: 6.00 Build 0)  -->
<!DOCTYPE svg PUBLIC "-//W3C//DTD SVG 1.1//EN" "http://www.w3.org/Graphics/SVG/1.1/DTD/svg11.dtd">
<svg version="1.1" id="Layer_1" xmlns="http://www.w3.org/2000/svg" xmlns:xlink="http://www.w3.org/1999/xlink" x="0px" y="0px"
	 viewBox="0.4 0 29.3 29.8" enable-background="new 0.4 0 29.3 29.8" xml:space="preserve">
<path fill="#374052" d="M27.7,27.8c-0.6,0.7-1.6,0.6-2.2,0c-0.6-0.6-0.6-1.6,0-2.2c0.7-0.6,1.6-0.6,2.2,0
	C28.3,26.2,28.3,27.3,27.7,27.8z M28.8,24.5L13.2,9.7c-1.1-1.2-1.3-1.7-1.1-3.1c0.3-1.5,0.3-3.4-1.5-5.1c-0.3-0.2-1-0.7-1-0.8
	C6.9-0.9,3.9,0.7,3.9,0.7L3.6,1c0,0,2.6,1.8,2.9,2C6.9,3.2,8,4.5,6.7,6.6C5.4,8.6,3.9,8,3.5,7.6C3.2,7.4,0.6,5.7,0.6,5.7L0.4,6.1
	c0,0-0.2,3.6,2.7,5.5c1.3,0.9,2.8,0.9,3.8,0.5c1-0.3,1.8,0,3,1.3l14.6,15.4c1.2,1.2,3,1.2,4.2,0C29.9,27.6,29.9,25.7,28.8,24.5z"/>
</svg>
