<svg version="1" xmlns="http://www.w3.org/2000/svg" width="933.333" height="933.333" viewBox="0 0 700.000000 700.000000"><path d="M0 350v350h700V0H0v350zM671.7 28.3c.7.8 1.3 640.9.6 643.2-.2.7-108.6 1-322.6 1H27.5V351c-.1-176.8 0-322 .2-322.5.4-1.2 642.7-1.4 644-.2z"/><path d="M230.8 160c-.2.8-.3 85.4-.3 188l.1 186.5 15.7.1c10.6.1 15.7-.2 16-1 .2-.6.3-30.9.2-67.4v-66.3l23.1-22.7c12.8-12.5 24.7-24.2 26.6-26l3.4-3.2 7.5 9.2c4 5.1 10.9 13.5 15.3 18.8 4.3 5.2 9.4 11.5 11.4 13.9 2 2.4 11.2 13.6 20.5 25 9.3 11.3 18.3 22.4 20.2 24.6 1.8 2.2 8.1 9.8 14 17 5.8 7.1 11.4 13.9 12.3 15 .9 1.1 11.8 14.4 24.2 29.5 12.3 15.1 23.5 28.6 24.7 30 1.3 1.4 2.3 2.8 2.3 3.1 0 .3 8.7.6 19.4.6 13.5-.1 19.3-.4 18.8-1.1-.6-1.1-22.9-28.7-39.7-49.2-4.9-6-10.6-13-12.5-15.4-1.9-2.4-4.7-5.8-6.1-7.5-1.4-1.6-6.4-7.7-11-13.5-4.7-5.8-13.8-17-20.3-25s-19.1-23.5-28-34.4c-23.9-29.6-35.6-43.9-37.5-46.1-.9-1.1-4.3-5.3-7.5-9.3l-5.9-7.3 2.4-2.6c1.3-1.5 4.7-5 7.4-7.9 2.8-2.8 7.3-7.6 10-10.5 5.3-5.7 32.6-34.9 36-38.4 1.1-1.2 8.5-9.1 16.5-17.6 8-8.4 18.1-19.2 22.6-23.9 4.4-4.7 10.7-11.4 14-14.8 3.2-3.5 8.2-8.8 10.9-11.7 2.8-2.9 8.1-8.6 11.9-12.6 3.8-4.1 10.1-10.8 14-14.9 3.9-4.1 8.1-8.7 9.3-10l2.2-2.5h-39.8l-5.8 6.1c-8.6 9.1-33.1 34.9-38.3 40.3-11.7 12.2-37.1 39-40 42.1-1.8 1.9-7.6 8-12.9 13.5-5.3 5.6-16.3 17.2-24.6 25.9-8.2 8.7-17.2 18.2-19.9 21-19.2 20.3-36.3 38.2-43.1 45.4l-8 8.4V158.5h-15.7c-13.4-.1-15.7.1-16 1.5z"/></svg>